<svg width="295" height="301" fill="none" xmlns="http://www.w3.org/2000/svg"><path fill-rule="evenodd" clip-rule="evenodd" d="M23.122 215.091c-2.394 8.344 1.934 11.821 8.508 18.07 16.622 15.81 4.207 15.378 13.485 18.705l23.533 11.362c19.504 8.874 25.374 22.073 29.35 23.196 4.679 1.326 5.045 3.584 11.213 3.882 16.136.785 8.561 3.611 17.407 7.601 3.355 1.515 16.23 3.112 17.176 2.854 5.884-1.624 6.723-7.398 23.817-7.155 3.991.055 8.67 0 12.552.311 17.961 1.42 4.626 1.326 30.716-7.439 3.908-1.311 15.864-9.196 18.395-13.078 3.692-5.667.784-4.436 5.6-7.508 3.246-2.068 13.972-.256 24.696-20.327 4.612-8.615 4.356-6.236 9.266-11.943 5.207-6.06 14.133-30.08 21.328-40.63 2.327-2.61.812-4.572-.365-7.142-3.869-14.797 9.008-7.399 3.355-27.647-10.225-36.653 12.146-2.272-10.51-63.447-1.962-5.315-3.747-6.994-7.425-11.754-7.858-10.197 3.504-7.94-8.831-12.376l1.84-8.508-3.571-10.711c-7.803-7.71-9.589-.569-15.365-10.739-8.007-14.093-8.926-7.438-19.016-14.227-9.657-9.13-5.531-.475-17.501-8.074-2.273-1.46-9.346-6.437-11.618-6.83-25.32-4.423-6.803-1.676-17.867-4.922-15.959-4.68-2.732 7.06-18.84-3.34-8.466-5.48-6.506-3.423-16.595 1.325-8.967 4.22-3.136-.23-13.416.405-15.31.961-19.232 4.22-30.445 5.816-11.347 1.624-7.155 2.61-16.096 7.791-3.313 1.935-1.055 1.393-8.344 3.328-15.107 4.003-4.572-1.57-13.917 10.224l-5.613 9.86c-.69 1.135-8.98 1.624-11.024 2.799-11.335 6.464-6.492.121-13.16 16.324-7.669 18.638-4.125-.676-14.906 19.99-1.542 2.99-4.152 4.91-6.6 7.115 0 5.585 1.718 9.251.486 12.253-2.069 5.032-4.8 2.677-8.642 19.314C3.12 133.046-.22 138.728.01 148.223l1.284 8.737c3.922 13.662-1.11 13.322 5.425 23.101 3.07 4.6-.542 5.126-1.771 11.293 3.489 2.245 3.72 3.462 7.642 4.356-7.873 4.599-1.677 10.008 2.096 16.663 1.947 3.922 3.124 4.207 8.466 2.72l-.031-.002Z" fill="#B9E5FA"/><path d="M215.181 195.328a1.05 1.05 0 0 0 1.051-1.051 1.05 1.05 0 0 0-1.051-1.051h-34.603a1.05 1.05 0 1 0 0 2.102h34.603ZM164.125 193.227h-44.15a1.05 1.05 0 1 0 0 2.102h44.15a1.05 1.05 0 1 0 0-2.102ZM108.64 195.328a1.05 1.05 0 1 0 0-2.102H92.624a1.05 1.05 0 1 0 0 2.102h16.016ZM220.478 113.831H188.34a1.05 1.05 0 0 0-1.051 1.051c0 18.116 6.546 38.223 16.068 39.614v21.929l-8.124 5.837-1.7-5.531a1.048 1.048 0 0 0-1.004-.742h-2.989v-6.11c0-17.028-13.579-30.91-30.473-31.472v-2.014a4.713 4.713 0 0 0 3.654-4.588 4.7 4.7 0 0 0-4.697-4.695c-2.602 0-4.715 2.105-4.715 4.695 0 2.234 1.565 4.102 3.656 4.585v2.017c-16.894.562-30.474 14.444-30.474 31.472v6.11h-2.987c-.462 0-.868.3-1.004.742l-2.362 7.679-21.739-.001a1.81 1.81 0 0 1-1.806-1.807V127.02c0-6.392 4.645-11.544 10.616-12.557 1.829-.305 3.155-1.914 3.155-3.827v-15.02h9.081v15.02c0 1.913 1.326 3.523 3.153 3.827a12.693 12.693 0 0 1 10.62 12.557v15.76a1.05 1.05 0 0 0 2.102 0v-15.76a14.788 14.788 0 0 0-12.376-14.63c-.811-.135-1.398-.873-1.398-1.753V95.474c.962-.295 1.677-1.158 1.677-2.215v-5.908A2.354 2.354 0 0 0 120.871 85h-11.935a2.355 2.355 0 0 0-2.353 2.351v5.908c0 1.057.715 1.92 1.677 2.215v15.163c0 .88-.587 1.619-1.402 1.753-6.943 1.177-12.37 7.172-12.37 14.63v55.582c0 .656.177 1.265.463 1.808h-6.9a1.05 1.05 0 1 0 0 2.102h131.701a1.05 1.05 0 1 0 0-2.102h-3.188l-11.105-7.998v-21.915c9.522-1.392 16.068-21.499 16.068-39.614a1.05 1.05 0 0 0-1.051-1.051l.002-.001Zm-111.79-26.482a.25.25 0 0 1 .251-.249h11.934a.25.25 0 0 1 .251.25v5.908a.25.25 0 0 1-.251.249h-11.934a.25.25 0 0 1-.251-.25V87.35Zm46.725 44.454c0-1.43 1.173-2.594 2.613-2.594a2.598 2.598 0 0 1 2.595 2.594 2.607 2.607 0 0 1-2.587 2.611c-.006 0-.011-.003-.017-.003l-.009.002a2.615 2.615 0 0 1-2.595-2.611v.001Zm2.606 8.651c16.138 0 29.281 13.059 29.419 29.167h-58.844c.139-16.107 13.284-29.167 29.422-29.167h.003Zm-29.425 31.267h58.847v4.265h-58.847v-4.265Zm63.653 12.686h-69.909l1.944-6.319h67.474l1.679 5.465-1.188.854Zm20.723 0h-17.076l-.008-.027 8.534-6.133 8.55 6.16Zm-8.56-31.934c-7.72 0-14.763-17.285-15.011-36.543h30.021c-.248 19.259-7.291 36.543-15.011 36.543h.001Z" fill="#042C58"/><path d="M207.187 147.811c.295 0 .589-.124.797-.365 2.423-2.82 4.734-8 6.337-14.21a1.055 1.055 0 0 0-.756-1.282 1.05 1.05 0 0 0-1.281.756c-1.503 5.824-3.705 10.82-5.894 13.367a1.05 1.05 0 0 0 .797 1.734ZM100.796 131.512a1.05 1.05 0 0 0 1.051-1.051v-3.439c0-3.82 2.782-6.793 6.227-7.374.573-.098.96-.64.863-1.213-.097-.572-.651-.944-1.211-.861-4.501.761-7.982 4.642-7.982 9.448v3.439c.001.58.471 1.051 1.052 1.051ZM99.747 141.836a1.05 1.05 0 1 0 2.102 0v-4.402a1.05 1.05 0 1 0-2.102 0v4.402ZM126.992 149.922l2.102-.038c-.031-2.133-1.784-3.87-3.909-3.87h-20.558a3.912 3.912 0 0 0-3.908 3.908v18.572a3.912 3.912 0 0 0 3.908 3.909h17.344a1.05 1.05 0 1 0 0-2.102h-17.344a1.81 1.81 0 0 1-1.806-1.807v-18.572c0-.979.827-1.807 1.806-1.807h20.558c.982 0 1.793.808 1.807 1.807Z" fill="#042C58"/><path d="M107.578 159.221c0 3.28 3.282 5.949 7.316 5.949 4.048 0 7.341-2.668 7.341-5.949 0-3.289-3.293-5.966-7.341-5.966-4.034 0-7.316 2.676-7.316 5.966Zm12.555 0c0 2.122-2.35 3.846-5.238 3.846-2.876 0-5.214-1.724-5.214-3.846 0-2.131 2.338-3.865 5.214-3.865 2.888 0 5.238 1.734 5.238 3.865Z" fill="#042C58"/></svg>