<svg width="295" height="301" viewBox="0 0 295 301" fill="none" xmlns="http://www.w3.org/2000/svg">
<path fill-rule="evenodd" clip-rule="evenodd" d="M23.1219 215.091C20.7278 223.435 25.0564 226.912 31.6302 233.161C48.2521 248.971 35.8371 248.539 45.1152 251.866L68.6485 263.228C88.1516 272.102 94.022 285.301 97.9985 286.424C102.677 287.75 103.043 290.008 109.211 290.306C125.347 291.091 117.772 293.917 126.618 297.907C129.973 299.422 142.848 301.019 143.794 300.761C149.678 299.137 150.517 293.363 167.611 293.606C171.602 293.661 176.281 293.606 180.163 293.917C198.124 295.337 184.789 295.243 210.879 286.478C214.787 285.167 226.743 277.282 229.274 273.4C232.966 267.733 230.058 268.964 234.874 265.892C238.12 263.824 248.846 265.636 259.57 245.565C264.182 236.95 263.926 239.329 268.836 233.622C274.043 227.562 282.969 203.542 290.164 192.992C292.491 190.382 290.976 188.42 289.799 185.85C285.93 171.053 298.807 178.451 293.154 158.203C282.929 121.55 305.3 155.931 282.644 94.756C280.682 89.4413 278.897 87.7624 275.219 83.0017C267.361 72.8046 278.723 75.0622 266.388 70.6265L268.228 62.1182L264.657 51.407C256.854 43.6979 255.068 50.8384 249.292 40.6684C241.285 26.5749 240.366 33.2301 230.276 26.4406C220.619 17.3113 224.745 25.9664 212.775 18.3668C210.502 16.9064 203.429 11.9297 201.157 11.537C175.837 7.11398 194.354 9.86055 183.29 6.61459C167.331 1.9356 180.558 13.6753 164.45 3.27421C155.984 -2.20411 157.944 -0.14798 147.855 4.60031C138.888 8.81983 144.719 4.3695 134.439 5.00527C119.129 5.96627 115.207 9.22479 103.994 10.8214C92.6468 12.4454 96.8392 13.4316 87.8985 18.6122C84.5854 20.5467 86.8431 20.0054 79.554 21.9399C64.4468 25.9433 74.982 20.3705 65.6366 32.1644L60.024 42.0237C59.3337 43.1588 51.0435 43.6477 49.0002 44.8227C37.6654 51.2872 42.5083 44.9444 35.8402 61.147C28.1714 79.7853 31.7151 60.4714 20.9345 81.1368C19.3923 84.1267 16.7821 86.0466 14.3336 88.2518C14.3336 93.837 16.052 97.503 14.8204 100.505C12.7515 105.537 10.0197 103.182 6.17774 119.819C3.12064 133.046 -0.219634 138.728 0.0113375 148.223L1.29543 156.96C5.217 170.622 0.18548 170.282 6.7195 180.061C9.78916 184.661 6.17817 185.187 4.94859 191.354C8.43793 193.599 8.66874 194.816 12.5905 195.71C4.71816 200.309 10.914 205.718 14.6866 212.373C16.6338 216.295 17.8109 216.58 23.1531 215.093L23.1219 215.091Z" fill="#D0F0FF"/>
<path d="M196.478 215C180.515 215 167.528 202.013 167.528 186.05C167.528 170.087 180.515 157.1 196.478 157.1C212.441 157.1 225.428 170.087 225.428 186.05C225.428 202.013 212.441 215 196.478 215V215ZM196.478 159.857C182.035 159.857 170.285 171.607 170.285 186.05C170.285 200.493 182.035 212.243 196.478 212.243C210.921 212.243 222.671 200.493 222.671 186.05C222.671 171.607 210.921 159.857 196.478 159.857V159.857Z" fill="#042C58"/>
<path d="M196.478 201.214C195.716 201.214 195.1 200.598 195.1 199.836C195.1 199.074 195.716 198.457 196.478 198.457C203.319 198.457 208.885 192.891 208.885 186.05C208.885 185.288 209.502 184.671 210.264 184.671C211.026 184.671 211.642 185.288 211.642 186.05C211.642 194.411 204.839 201.214 196.478 201.214V201.214Z" fill="#042C58"/>
<path d="M148.227 190.876H103.422C102.937 190.876 102.488 190.621 102.238 190.204C101.99 189.788 101.979 189.271 102.208 188.844L126.332 144.039C126.572 143.593 127.039 143.314 127.546 143.314H179.241C179.754 143.314 180.225 143.599 180.462 144.053C180.7 144.507 180.667 145.056 180.375 145.477L149.357 190.281C149.101 190.654 148.678 190.876 148.225 190.876H148.227ZM105.732 188.119H147.505L176.614 146.072H128.372L105.732 188.119Z" fill="#042C58"/>
<path d="M155.121 201.214H144.782C144.02 201.214 143.404 200.598 143.404 199.836V179.502L115.995 128.109C115.637 127.437 115.89 126.602 116.562 126.244C117.235 125.886 118.069 126.14 118.427 126.812L145.999 178.507C146.106 178.707 146.161 178.931 146.161 179.156V198.456H155.122C155.884 198.456 156.5 199.072 156.5 199.834C156.5 200.596 155.884 201.213 155.122 201.213L155.121 201.214Z" fill="#042C58"/>
<path d="M196.478 187.429C195.913 187.429 195.384 187.079 195.181 186.518L174.503 129.195C174.244 128.478 174.616 127.688 175.331 127.429C176.045 127.171 176.838 127.542 177.096 128.258L197.775 185.581C198.033 186.297 197.661 187.088 196.946 187.346C196.792 187.403 196.634 187.429 196.478 187.429V187.429Z" fill="#042C58"/>
<path d="M103.423 215C87.4596 215 74.4727 202.013 74.4727 186.05C74.4727 170.087 87.4596 157.1 103.423 157.1C119.386 157.1 132.373 170.087 132.373 186.05C132.373 202.013 119.386 215 103.423 215V215ZM103.423 159.857C88.9796 159.857 77.2298 171.607 77.2298 186.05C77.2298 200.493 88.9796 212.243 103.423 212.243C117.866 212.243 129.615 200.493 129.615 186.05C129.615 171.607 117.866 159.857 103.423 159.857V159.857Z" fill="#042C58"/>
<path d="M103.423 201.214C95.0613 201.214 88.2583 194.411 88.2583 186.05C88.2583 185.288 88.875 184.671 89.6369 184.671C90.3988 184.671 91.0154 185.288 91.0154 186.05C91.0154 192.891 96.5814 198.457 103.423 198.457C104.184 198.457 104.801 199.074 104.801 199.836C104.801 200.598 104.184 201.214 103.423 201.214Z" fill="#042C58"/>
<path d="M181.829 128.842H166.32C163.185 128.842 160.634 126.29 160.634 123.155V120.57C160.634 119.808 161.25 119.192 162.012 119.192C162.774 119.192 163.391 119.808 163.391 120.57V123.155C163.391 124.77 164.705 126.085 166.32 126.085H181.829C183.444 126.085 184.759 124.77 184.759 123.155V120.57C184.759 119.808 185.375 119.192 186.137 119.192C186.899 119.192 187.516 119.808 187.516 120.57V123.155C187.516 126.29 184.964 128.842 181.829 128.842H181.829Z" fill="#042C58"/>
<path d="M130.994 128.842H112.039C108.427 128.842 105.491 125.905 105.491 122.294C105.491 118.682 108.428 115.746 112.039 115.746H120.655C121.417 115.746 122.034 116.362 122.034 117.124C122.034 117.886 121.417 118.503 120.655 118.503H112.039C109.949 118.503 108.248 120.204 108.248 122.294C108.248 124.384 109.949 126.085 112.039 126.085H130.994C131.756 126.085 132.373 126.701 132.373 127.463C132.373 128.225 131.756 128.842 130.994 128.842Z" fill="#042C58"/>
<path d="M220.602 215H162.012C161.25 215 160.634 214.383 160.634 213.621C160.634 212.859 161.25 212.243 162.012 212.243H220.602C221.364 212.243 221.981 212.859 221.981 213.621C221.981 214.383 221.364 215 220.602 215Z" fill="#042C58"/>
<path d="M134.441 215H75.8512C75.0893 215 74.4727 214.383 74.4727 213.621C74.4727 212.859 75.0893 212.243 75.8512 212.243H134.441C135.203 212.243 135.82 212.859 135.82 213.621C135.82 214.383 135.203 215 134.441 215Z" fill="#042C58"/>
<path d="M168.907 159.857H148.228C147.706 159.857 147.229 159.562 146.995 159.095L140.102 145.31C139.761 144.628 140.038 143.801 140.719 143.46C141.401 143.12 142.228 143.396 142.569 144.076L149.08 157.1H168.907C169.669 157.1 170.285 157.717 170.285 158.479C170.285 159.241 169.669 159.857 168.907 159.857V159.857Z" fill="#042C58"/>
<path d="M107.856 99.9892H90.6241C87.1495 99.9892 84.3221 97.1619 84.3221 93.6872C84.3221 93.3229 84.3541 92.961 84.4169 92.6041H80.7771C77.3025 92.6041 74.4751 89.7767 74.4751 86.302C74.4751 82.8273 77.3024 80 80.7771 80H98.0094C101.484 80 104.311 82.8273 104.311 86.302C104.311 86.6663 104.279 87.0282 104.217 87.3852H107.856C111.331 87.3852 114.158 90.2125 114.158 93.6872C114.158 97.1619 111.331 99.9892 107.856 99.9892ZM80.7772 82.757C78.8226 82.757 77.2323 84.3473 77.2323 86.3019C77.2323 88.2565 78.8226 89.8468 80.7772 89.8468H86.3639C86.8563 89.8468 87.3117 90.1102 87.5579 90.5373C87.8041 90.9644 87.8028 91.49 87.5567 91.9171C87.244 92.4574 87.0779 93.0691 87.0779 93.6871C87.0779 95.6417 88.6682 97.2319 90.6228 97.2319H107.855C109.81 97.2319 111.4 95.6417 111.4 93.6871C111.4 91.7325 109.81 90.1422 107.855 90.1422H102.268C101.776 90.1422 101.321 89.8788 101.074 89.4517C100.828 89.0245 100.828 88.499 101.076 88.0719C101.388 87.5315 101.554 86.9185 101.554 86.3006C101.554 84.346 99.9641 82.7558 98.0095 82.7558L80.7772 82.757Z" fill="#042C58"/>
<path d="M215.677 111.609H198.445C194.97 111.609 192.143 108.782 192.143 105.307C192.143 104.943 192.175 104.581 192.238 104.224H188.598C185.123 104.224 182.296 101.396 182.296 97.9217C182.296 94.447 185.123 91.6197 188.598 91.6197H205.83C209.305 91.6197 212.132 94.447 212.132 97.9217C212.132 98.2861 212.1 98.6479 212.037 99.0049H215.677C219.152 99.0049 221.979 101.832 221.979 105.307C221.979 108.782 219.152 111.609 215.677 111.609ZM188.598 94.3767C186.643 94.3767 185.053 95.967 185.053 97.9216C185.053 99.8762 186.643 101.466 188.598 101.466H194.186C194.68 101.466 195.135 101.73 195.38 102.157C195.626 102.584 195.625 103.11 195.377 103.537C195.065 104.076 194.899 104.688 194.899 105.307C194.899 107.261 196.489 108.852 198.444 108.852H215.676C217.63 108.852 219.221 107.261 219.221 105.307C219.221 103.352 217.63 101.762 215.676 101.762H210.089C209.597 101.762 209.141 101.498 208.895 101.071C208.649 100.644 208.65 100.119 208.896 99.6916C209.209 99.1512 209.375 98.5382 209.375 97.9203C209.375 95.9657 207.785 94.3755 205.83 94.3755L188.598 94.3767Z" fill="#042C58"/>
</svg>
