<svg width="295" height="301" viewBox="0 0 295 301" fill="none" xmlns="http://www.w3.org/2000/svg">
<path fill-rule="evenodd" clip-rule="evenodd" d="M23.1219 215.091C20.7278 223.435 25.0564 226.912 31.6302 233.161C48.2521 248.971 35.8371 248.539 45.1152 251.866L68.6485 263.228C88.1516 272.102 94.022 285.301 97.9985 286.424C102.677 287.75 103.043 290.008 109.211 290.306C125.347 291.091 117.772 293.917 126.618 297.907C129.973 299.422 142.848 301.019 143.794 300.761C149.678 299.137 150.517 293.363 167.611 293.606C171.602 293.661 176.281 293.606 180.163 293.917C198.124 295.337 184.789 295.243 210.879 286.478C214.787 285.167 226.743 277.282 229.274 273.4C232.966 267.733 230.058 268.964 234.874 265.892C238.12 263.824 248.846 265.636 259.57 245.565C264.182 236.95 263.926 239.329 268.836 233.622C274.043 227.562 282.969 203.542 290.164 192.992C292.491 190.382 290.976 188.42 289.799 185.85C285.93 171.053 298.807 178.451 293.154 158.203C282.929 121.55 305.3 155.931 282.644 94.756C280.682 89.4413 278.897 87.7624 275.219 83.0017C267.361 72.8046 278.723 75.0622 266.388 70.6265L268.228 62.1182L264.657 51.407C256.854 43.6979 255.068 50.8384 249.292 40.6684C241.285 26.5749 240.366 33.2301 230.276 26.4406C220.619 17.3113 224.745 25.9664 212.775 18.3668C210.502 16.9064 203.429 11.9297 201.157 11.537C175.837 7.11398 194.354 9.86055 183.29 6.61459C167.331 1.9356 180.558 13.6753 164.45 3.27421C155.984 -2.20411 157.944 -0.14798 147.855 4.60031C138.888 8.81983 144.719 4.3695 134.439 5.00527C119.129 5.96627 115.207 9.22479 103.994 10.8214C92.6468 12.4454 96.8392 13.4316 87.8985 18.6122C84.5854 20.5467 86.8431 20.0054 79.554 21.9399C64.4468 25.9433 74.982 20.3705 65.6366 32.1644L60.024 42.0237C59.3337 43.1588 51.0435 43.6477 49.0002 44.8227C37.6654 51.2872 42.5083 44.9444 35.8402 61.147C28.1714 79.7853 31.7151 60.4714 20.9345 81.1368C19.3923 84.1267 16.7821 86.0466 14.3336 88.2518C14.3336 93.837 16.052 97.503 14.8204 100.505C12.7515 105.537 10.0197 103.182 6.17774 119.819C3.12064 133.046 -0.219634 138.728 0.0113375 148.223L1.29543 156.96C5.217 170.622 0.18548 170.282 6.7195 180.061C9.78916 184.661 6.17817 185.187 4.94859 191.354C8.43793 193.599 8.66874 194.816 12.5905 195.71C4.71816 200.309 10.914 205.718 14.6866 212.373C16.6338 216.295 17.8109 216.58 23.1531 215.093L23.1219 215.091Z" fill="#D0F0FF"/>
<path d="M207.597 166.329H191.866V165.634C191.865 164.321 191.337 163.063 190.4 162.135C189.463 161.206 188.192 160.684 186.866 160.682H172.344C171.772 160.688 171.207 160.792 170.671 160.989C170.844 160.228 170.934 159.45 170.935 158.67V137.862C173.891 139.595 177.272 140.486 180.707 140.436C181.079 140.436 181.437 140.29 181.699 140.029C181.963 139.768 182.111 139.414 182.111 139.045V116.67C182.109 115.167 181.505 113.726 180.432 112.663C179.358 111.599 177.903 111.002 176.385 111H116.616C115.098 111.002 113.642 111.6 112.568 112.663C111.496 113.726 110.891 115.167 110.89 116.67V139.045C110.89 139.414 111.038 139.768 111.302 140.029C111.565 140.29 111.922 140.436 112.294 140.436C115.729 140.486 119.111 139.595 122.067 137.862V158.67C122.068 159.451 122.158 160.23 122.332 160.992C121.791 160.793 121.22 160.688 120.643 160.682H106.135C104.809 160.684 103.538 161.206 102.601 162.135C101.664 163.063 101.136 164.321 101.135 165.634V166.329H85.4039C84.629 166.329 84 166.952 84 167.72V186.314C84.0069 192.859 86.6364 199.134 91.3097 203.761C95.9839 208.39 102.32 210.992 108.93 211H115.5H184.07C190.68 210.992 197.016 208.388 201.69 203.761C206.364 199.134 208.993 192.859 209 186.314V167.72C209 167.351 208.852 166.997 208.589 166.737C208.326 166.476 207.969 166.329 207.597 166.329ZM172.344 163.464H186.866C188.076 163.466 189.056 164.436 189.057 165.634V175.522C189.052 176.918 188.002 178.094 186.602 178.268V174.484C186.602 173.716 185.974 173.094 185.199 173.094C184.423 173.094 183.794 173.716 183.794 174.484V178.304H181.008V174.484C181.008 173.716 180.38 173.094 179.604 173.094C178.828 173.094 178.199 173.716 178.199 174.484V178.304H175.414V174.484C175.414 173.716 174.785 173.094 174.009 173.094C173.234 173.094 172.605 173.716 172.605 174.484V178.268C171.207 178.093 170.156 176.917 170.152 175.522V165.634C170.153 164.436 171.134 163.466 172.344 163.464ZM124.874 135.82C124.913 135.786 124.946 135.748 124.984 135.714C125.386 135.354 125.771 134.982 126.14 134.596C126.201 134.532 126.26 134.466 126.319 134.401C126.67 134.023 127.007 133.635 127.33 133.238C127.362 133.197 127.397 133.158 127.429 133.117C127.766 132.694 128.084 132.259 128.39 131.816C128.449 131.73 128.508 131.644 128.567 131.557C128.865 131.116 129.15 130.668 129.418 130.213C129.452 130.156 129.484 130.097 129.517 130.04C129.773 129.6 130.017 129.154 130.247 128.705C130.275 128.651 130.305 128.598 130.332 128.543C130.57 128.073 130.794 127.599 131.006 127.124C131.046 127.036 131.085 126.947 131.123 126.859C131.331 126.384 131.529 125.908 131.712 125.435C131.728 125.393 131.742 125.352 131.759 125.31C131.934 124.851 132.099 124.395 132.252 123.941C132.273 123.876 132.297 123.812 132.318 123.747C132.474 123.281 132.619 122.821 132.752 122.365C132.777 122.282 132.8 122.202 132.824 122.119C132.957 121.659 133.082 121.205 133.196 120.762L133.206 120.721C133.317 120.281 133.419 119.851 133.513 119.431C133.528 119.366 133.543 119.302 133.558 119.238C133.649 118.825 133.731 118.425 133.805 118.037C133.818 117.971 133.83 117.907 133.843 117.842C133.992 117.052 134.11 116.324 134.202 115.672L134.223 115.526C134.266 115.213 134.304 114.919 134.336 114.646L134.349 114.532C134.38 114.261 134.408 114.007 134.43 113.783L158.568 113.782L158.577 113.861C158.596 114.052 158.619 114.263 158.645 114.487C158.652 114.549 158.657 114.605 158.665 114.667C158.697 114.929 158.733 115.21 158.774 115.51C158.782 115.568 158.791 115.627 158.799 115.687C158.892 116.338 159.01 117.067 159.159 117.855L159.191 118.027C159.268 118.422 159.352 118.83 159.444 119.251L159.479 119.409C159.674 120.279 159.907 121.197 160.182 122.146C160.201 122.212 160.22 122.277 160.24 122.342C160.378 122.811 160.528 123.285 160.687 123.766C160.703 123.811 160.719 123.857 160.734 123.903C160.899 124.387 161.073 124.875 161.261 125.366L161.279 125.414C161.468 125.903 161.672 126.394 161.887 126.885C161.918 126.957 161.95 127.029 161.983 127.101C162.2 127.588 162.428 128.074 162.673 128.556C162.693 128.595 162.714 128.634 162.734 128.672C162.976 129.144 163.231 129.611 163.5 130.074C163.524 130.115 163.546 130.157 163.571 130.197C163.845 130.663 164.137 131.122 164.443 131.574C164.494 131.649 164.544 131.723 164.596 131.798C164.908 132.25 165.233 132.695 165.577 133.127C165.601 133.156 165.625 133.184 165.649 133.214C165.981 133.627 166.329 134.028 166.695 134.418C166.748 134.475 166.798 134.533 166.852 134.588C167.224 134.979 167.613 135.356 168.019 135.717C168.057 135.75 168.089 135.787 168.126 135.82L168.125 158.671C168.14 160.666 167.362 162.586 165.959 164.016C164.557 165.447 162.643 166.276 160.63 166.321H132.387C130.371 166.279 128.453 165.452 127.047 164.02C125.641 162.589 124.861 160.668 124.873 158.671L124.874 135.82ZM176.384 113.782C177.995 113.784 179.3 115.076 179.302 116.671V137.604C176.044 137.409 172.933 136.186 170.428 134.113C170.045 133.798 169.684 133.462 169.333 133.116C169.261 133.047 169.19 132.978 169.12 132.906C168.788 132.568 168.468 132.218 168.163 131.856C168.104 131.786 168.047 131.715 167.989 131.644C167.708 131.3 167.438 130.949 167.178 130.588C167.144 130.541 167.108 130.494 167.073 130.447C166.798 130.057 166.539 129.657 166.29 129.251C166.233 129.159 166.176 129.066 166.12 128.973C165.879 128.57 165.647 128.162 165.428 127.749C165.394 127.683 165.362 127.617 165.328 127.551C165.131 127.171 164.944 126.787 164.766 126.402C164.728 126.32 164.689 126.238 164.652 126.156C164.462 125.738 164.284 125.318 164.116 124.898C164.075 124.799 164.037 124.7 163.999 124.601C163.833 124.174 163.672 123.748 163.525 123.325L163.495 123.238C163.354 122.829 163.225 122.425 163.101 122.023C163.072 121.929 163.042 121.835 163.014 121.742C162.893 121.336 162.779 120.937 162.674 120.542C162.65 120.455 162.628 120.369 162.606 120.282C162.51 119.915 162.42 119.554 162.337 119.201C162.327 119.155 162.314 119.107 162.304 119.06C162.215 118.676 162.136 118.304 162.061 117.94C162.045 117.858 162.028 117.776 162.011 117.696C161.941 117.341 161.875 116.996 161.817 116.667C161.808 116.617 161.801 116.569 161.792 116.52C161.739 116.212 161.69 115.916 161.647 115.635L161.625 115.5C161.58 115.197 161.54 114.911 161.505 114.645L161.489 114.52C161.455 114.255 161.424 114.003 161.4 113.78L176.384 113.782ZM113.699 116.671C113.701 115.076 115.005 113.784 116.615 113.782H131.599L131.592 113.843C131.57 114.035 131.545 114.249 131.516 114.472C131.508 114.541 131.499 114.611 131.489 114.682C131.456 114.935 131.418 115.201 131.376 115.485C131.367 115.544 131.357 115.608 131.348 115.668C131.307 115.935 131.261 116.214 131.211 116.505C131.201 116.563 131.192 116.617 131.182 116.675C131.125 117.004 131.059 117.347 130.988 117.7C130.973 117.779 130.957 117.858 130.94 117.937C130.865 118.306 130.784 118.684 130.693 119.074L130.671 119.168C130.584 119.543 130.488 119.927 130.386 120.317C130.368 120.386 130.351 120.455 130.332 120.524C130.223 120.932 130.106 121.346 129.979 121.767C129.957 121.841 129.933 121.916 129.911 121.989C129.643 122.859 129.338 123.747 128.988 124.639C128.957 124.717 128.927 124.795 128.896 124.873C128.72 125.31 128.535 125.747 128.338 126.182C128.312 126.241 128.283 126.3 128.256 126.359C128.062 126.78 127.857 127.198 127.643 127.614C127.623 127.653 127.603 127.692 127.584 127.729C127.358 128.158 127.118 128.582 126.867 129C126.821 129.077 126.774 129.154 126.727 129.23C126.47 129.648 126.203 130.061 125.918 130.462C125.896 130.494 125.87 130.526 125.848 130.558C125.575 130.939 125.29 131.309 124.993 131.67C124.945 131.729 124.898 131.788 124.849 131.847C124.538 132.215 124.214 132.571 123.874 132.915C123.809 132.981 123.741 133.045 123.676 133.111C123.322 133.459 122.957 133.797 122.572 134.116H122.569C120.065 136.187 116.956 137.409 113.699 137.604L113.699 116.671ZM103.944 165.636C103.945 164.438 104.925 163.467 106.134 163.465H120.643C121.857 163.463 122.843 164.434 122.848 165.636V175.524C122.844 176.921 121.792 178.097 120.391 178.27V174.486C120.391 173.718 119.762 173.096 118.987 173.096C118.211 173.096 117.582 173.718 117.582 174.486V178.305H114.797V174.486C114.797 173.718 114.168 173.096 113.392 173.096C112.616 173.096 111.988 173.718 111.988 174.486V178.305H109.203L109.202 174.486C109.202 173.718 108.573 173.096 107.798 173.096C107.022 173.096 106.393 173.718 106.393 174.486V178.269C104.996 178.093 103.948 176.918 103.944 175.524L103.944 165.636ZM206.191 186.315C206.184 192.123 203.852 197.691 199.705 201.798C195.558 205.903 189.935 208.214 184.071 208.22H115.5H108.93C103.065 208.214 97.4428 205.903 93.2957 201.798C89.1487 197.691 86.816 192.123 86.8092 186.315V169.112H101.135V175.524C101.137 176.998 101.729 178.413 102.782 179.456C103.836 180.498 105.264 181.084 106.753 181.086H120.04C121.53 181.084 122.957 180.498 124.01 179.456C125.064 178.413 125.656 176.998 125.658 175.524V169.112H167.342V175.524C167.344 176.998 167.937 178.413 168.99 179.456C170.043 180.498 171.47 181.084 172.96 181.086H186.247C187.736 181.084 189.165 180.498 190.218 179.456C191.271 178.413 191.863 176.998 191.865 175.524V169.112H206.191L206.191 186.315Z" fill="#042C58"/>
<path d="M140.128 150.677L144.224 154.835C144.956 155.583 145.957 156.003 147 156H147.001C148.044 156.002 149.044 155.583 149.775 154.835L153.872 150.676V150.677C154.598 149.939 155.004 148.943 155 147.905C154.996 146.868 154.582 145.875 153.851 145.143C153.119 144.411 152.129 144 151.095 144H142.904C141.871 144 140.88 144.411 140.148 145.143C139.417 145.875 139.004 146.868 139 147.905C138.996 148.943 139.402 149.939 140.128 150.677V150.677ZM141.901 147.5C142.065 147.089 142.464 146.823 142.904 146.828H151.095C151.534 146.828 151.93 147.092 152.099 147.5C152.268 147.906 152.178 148.375 151.869 148.688L147.772 152.848V152.847C147.341 153.266 146.657 153.266 146.226 152.847L142.131 148.688C141.816 148.378 141.725 147.905 141.901 147.5V147.5Z" fill="#042C58"/>
<path d="M154.82 132.889L161.134 135.881C161.817 136.204 162.604 135.846 162.894 135.082C163.182 134.317 162.863 133.435 162.18 133.111L155.866 130.119V130.12C155.183 129.795 154.396 130.153 154.106 130.918C153.818 131.683 154.137 132.566 154.82 132.889V132.889Z" fill="#042C58"/>
<path d="M131.344 136C131.523 136 131.701 135.959 131.865 135.88L138.179 132.889H138.18C138.863 132.566 139.183 131.682 138.893 130.918C138.605 130.153 137.816 129.795 137.133 130.12L130.819 133.111V133.11C130.231 133.389 129.9 134.094 130.027 134.795C130.154 135.497 130.705 136 131.344 136L131.344 136Z" fill="#042C58"/>
<path d="M147.222 89V93.8889V89Z" stroke="#042C58" stroke-width="2.1" stroke-miterlimit="10" stroke-linecap="round" stroke-linejoin="round"/>
<path d="M191.33 143H210.884H191.33Z" stroke="#042C58" stroke-width="2.1" stroke-miterlimit="10" stroke-linecap="round" stroke-linejoin="round"/>
<path d="M220.665 143H230.444H220.665Z" stroke="#042C58" stroke-width="2.1" stroke-miterlimit="10" stroke-linecap="round" stroke-linejoin="round"/>
<path d="M83.5557 143H103.111" stroke="#042C58" stroke-width="2.1" stroke-miterlimit="10" stroke-linecap="round" stroke-linejoin="round"/>
<path d="M64 143H73.7737H64Z" stroke="#042C58" stroke-width="2.1" stroke-miterlimit="10" stroke-linecap="round" stroke-linejoin="round"/>
<path d="M191.224 89L174.874 105.34L191.224 89Z" stroke="#042C58" stroke-width="2.1" stroke-miterlimit="10" stroke-linecap="round" stroke-linejoin="round"/>
<path d="M103.218 89L119.567 105.353L103.218 89Z" stroke="#042C58" stroke-width="2.1" stroke-miterlimit="10" stroke-linecap="round" stroke-linejoin="round"/>
<path d="M165.448 89L162.184 96.8776L165.448 89Z" stroke="#042C58" stroke-width="2.1" stroke-miterlimit="10" stroke-linecap="round" stroke-linejoin="round"/>
<path d="M128.993 89L132.254 96.8776L128.993 89Z" stroke="#042C58" stroke-width="2.1" stroke-miterlimit="10" stroke-linecap="round" stroke-linejoin="round"/>
<path d="M86.5378 114.938L64 105.604L86.5378 114.938Z" stroke="#042C58" stroke-width="2.1" stroke-miterlimit="10" stroke-linecap="round" stroke-linejoin="round"/>
<path d="M106.099 123.042L96.3201 118.992L106.099 123.042Z" stroke="#042C58" stroke-width="2.1" stroke-miterlimit="10" stroke-linecap="round" stroke-linejoin="round"/>
<path d="M230.445 105.596L207.907 114.938L230.445 105.596Z" stroke="#042C58" stroke-width="2.1" stroke-miterlimit="10" stroke-linecap="round" stroke-linejoin="round"/>
<path d="M198.133 118.99L188.355 123.035L198.133 118.99Z" stroke="#042C58" stroke-width="2.1" stroke-miterlimit="10" stroke-linecap="round" stroke-linejoin="round"/>
</svg>
