<svg width="295" height="301" viewBox="0 0 295 301" fill="none" xmlns="http://www.w3.org/2000/svg">
<path fill-rule="evenodd" clip-rule="evenodd" d="M23.1219 215.091C20.7278 223.435 25.0564 226.912 31.6302 233.161C48.2521 248.971 35.8371 248.539 45.1152 251.866L68.6485 263.228C88.1516 272.102 94.022 285.301 97.9985 286.424C102.677 287.75 103.043 290.008 109.211 290.306C125.347 291.091 117.772 293.917 126.618 297.907C129.973 299.422 142.848 301.019 143.794 300.761C149.678 299.137 150.517 293.363 167.611 293.606C171.602 293.661 176.281 293.606 180.163 293.917C198.124 295.337 184.789 295.243 210.879 286.478C214.787 285.167 226.743 277.282 229.274 273.4C232.966 267.733 230.058 268.964 234.874 265.892C238.12 263.824 248.846 265.636 259.57 245.565C264.182 236.95 263.926 239.329 268.836 233.622C274.043 227.562 282.969 203.542 290.164 192.992C292.491 190.382 290.976 188.42 289.799 185.85C285.93 171.053 298.807 178.451 293.154 158.203C282.929 121.55 305.3 155.931 282.644 94.756C280.682 89.4413 278.897 87.7624 275.219 83.0017C267.361 72.8046 278.723 75.0622 266.388 70.6265L268.228 62.1182L264.657 51.407C256.854 43.6979 255.068 50.8384 249.292 40.6684C241.285 26.5749 240.366 33.2301 230.276 26.4406C220.619 17.3113 224.745 25.9664 212.775 18.3668C210.502 16.9064 203.429 11.9297 201.157 11.537C175.837 7.11398 194.354 9.86055 183.29 6.61459C167.331 1.9356 180.558 13.6753 164.45 3.27421C155.984 -2.20411 157.944 -0.14798 147.855 4.60031C138.888 8.81983 144.719 4.3695 134.439 5.00527C119.129 5.96627 115.207 9.22479 103.994 10.8214C92.6468 12.4454 96.8392 13.4316 87.8985 18.6122C84.5854 20.5467 86.8431 20.0054 79.554 21.9399C64.4468 25.9433 74.982 20.3705 65.6366 32.1644L60.024 42.0237C59.3337 43.1588 51.0435 43.6477 49.0002 44.8227C37.6654 51.2872 42.5083 44.9444 35.8402 61.147C28.1714 79.7853 31.7151 60.4714 20.9345 81.1368C19.3923 84.1267 16.7821 86.0466 14.3336 88.2518C14.3336 93.837 16.052 97.503 14.8204 100.505C12.7515 105.537 10.0197 103.182 6.17774 119.819C3.12064 133.046 -0.219634 138.728 0.0113375 148.223L1.29543 156.96C5.217 170.622 0.18548 170.282 6.7195 180.061C9.78916 184.661 6.17817 185.187 4.94859 191.354C8.43793 193.599 8.66874 194.816 12.5905 195.71C4.71816 200.309 10.914 205.718 14.6866 212.373C16.6338 216.295 17.8109 216.58 23.1531 215.093L23.1219 215.091Z" fill="#D0F0FF"/>
<path d="M180.729 216.127H193.123C193.619 216.127 194.019 215.727 194.019 215.231V209.714C194.019 209.219 193.619 208.818 193.123 208.818H180.729C180.233 208.818 179.833 209.219 179.833 209.714V215.231C179.833 215.726 180.233 216.127 180.729 216.127ZM181.625 210.61H192.227V214.334H181.625V210.61Z" fill="#042C58" stroke="#042C58" stroke-width="0.5"/>
<path d="M168.915 129.103H190.122C191.715 129.103 193.011 127.805 193.011 126.212V121.692C193.011 120.098 191.714 118.802 190.122 118.802H168.915C167.322 118.802 166.025 120.099 166.025 121.692V126.212C166.025 127.805 167.322 129.103 168.915 129.103ZM167.817 121.692C167.817 121.087 168.309 120.594 168.915 120.594H190.122C190.727 120.594 191.22 121.087 191.22 121.692V126.212C191.22 126.817 190.728 127.311 190.122 127.311H168.915C168.309 127.311 167.817 126.818 167.817 126.212V121.692Z" fill="#042C58" stroke="#042C58" stroke-width="0.5"/>
<path d="M173.981 124.848H185.06C185.556 124.848 185.956 124.448 185.956 123.952C185.956 123.457 185.556 123.056 185.06 123.056H173.981C173.485 123.056 173.085 123.457 173.085 123.952C173.085 124.447 173.485 124.848 173.981 124.848Z" fill="#042C58" stroke="#042C58" stroke-width="0.5"/>
<path d="M124.22 121.244H105.665C105.169 121.244 104.769 121.644 104.769 122.14C104.769 122.636 105.169 123.036 105.665 123.036H106.478V125.26C106.478 127.145 108.013 128.679 109.898 128.679H119.985C121.87 128.679 123.405 127.145 123.405 125.26L123.406 123.036H124.219C124.715 123.036 125.115 122.636 125.115 122.14C125.115 121.644 124.715 121.244 124.219 121.244H124.22ZM121.614 125.26C121.614 126.157 120.884 126.887 119.986 126.887H109.899C109.001 126.887 108.271 126.157 108.271 125.26V123.036H121.613L121.614 125.26Z" fill="#042C58" stroke="#042C58" stroke-width="0.5"/>
<path d="M138.456 125.017C138.456 127.46 140.433 129.448 142.864 129.448C145.307 129.448 147.293 127.46 147.293 125.017C147.293 122.896 145.78 121.121 143.771 120.703L143.77 119.351C143.77 118.855 143.37 118.455 142.874 118.455C142.378 118.455 141.978 118.855 141.978 119.351V120.699C139.97 121.11 138.455 122.89 138.455 125.017L138.456 125.017ZM141.978 122.566V123.66C141.978 124.155 142.379 124.556 142.874 124.556C143.37 124.556 143.77 124.155 143.77 123.66V122.565C144.788 122.925 145.501 123.87 145.501 125.018C145.501 126.472 144.318 127.656 142.863 127.656C141.422 127.656 140.247 126.472 140.247 125.018C140.248 123.887 140.973 122.931 141.978 122.566L141.978 122.566Z" fill="#042C58" stroke="#042C58" stroke-width="0.5"/>
<path d="M149.504 197.563C163.431 197.563 175.175 187.701 177.63 174.054C178.46 173.546 179.02 172.638 179.02 171.596V166.324C179.02 165.282 178.46 164.374 177.63 163.865C175.194 150.219 163.449 140.357 149.504 140.357C133.727 140.357 120.892 153.183 120.892 168.949C120.892 184.726 133.728 197.562 149.504 197.562V197.563ZM169.862 173.186C167.876 182.83 159.378 189.788 149.504 189.788C138.013 189.788 128.666 180.44 128.666 168.949C128.666 157.469 138.013 148.13 149.504 148.13C159.383 148.13 167.885 155.084 169.864 164.723C169.568 165.181 169.386 165.871 169.386 166.318V171.602C169.386 172.446 169.781 173.002 169.862 173.186L169.862 173.186ZM171.182 171.595V166.323C171.182 165.748 171.656 165.224 172.28 165.224H176.131C176.737 165.224 177.229 165.717 177.229 166.323V171.595C177.229 172.2 176.737 172.693 176.131 172.693H172.28C171.758 172.693 171.182 172.258 171.182 171.595ZM149.504 142.148C162.32 142.148 173.169 151.026 175.739 163.427H172.276C171.983 163.427 171.698 163.485 171.42 163.573C168.975 153.519 159.961 146.337 149.504 146.337C137.027 146.337 126.873 156.48 126.873 168.948C126.873 181.427 137.025 191.58 149.504 191.58C159.954 191.58 168.964 184.4 171.416 174.345C171.693 174.431 171.979 174.492 172.276 174.492H175.737C173.147 186.892 162.3 195.77 149.504 195.77C134.716 195.77 122.684 183.738 122.684 168.949C122.685 154.172 134.716 142.148 149.504 142.148L149.504 142.148Z" fill="#042C58" stroke="#042C58" stroke-width="0.5"/>
<path d="M144.447 159.772C144.797 159.422 144.797 158.855 144.447 158.505C144.096 158.155 143.529 158.155 143.179 158.505L141.33 160.354C140.979 160.704 140.979 161.271 141.33 161.621C141.68 161.971 142.247 161.971 142.597 161.621L144.447 159.772Z" fill="#042C58" stroke="#042C58" stroke-width="0.5"/>
<path d="M148.013 159.468L142.294 165.186C141.944 165.536 141.944 166.103 142.294 166.453C142.645 166.803 143.212 166.803 143.562 166.453L149.281 160.735C149.631 160.385 149.631 159.818 149.281 159.468C148.931 159.118 148.364 159.118 148.013 159.468V159.468Z" fill="#042C58" stroke="#042C58" stroke-width="0.5"/>
<path d="M175.001 227.512H185.171C185.667 227.512 186.067 227.112 186.067 226.616V222.11H195.46C197.963 222.11 200 220.073 200 217.569V117.361C199.999 114.856 197.962 112.819 195.46 112.819H103.539C101.037 112.819 99 114.856 99 117.36V217.568C99 220.071 101.037 222.109 103.54 222.109H107.375V226.616C107.375 227.111 107.775 227.512 108.27 227.512H118.44C118.936 227.512 119.336 227.111 119.336 226.616V222.109H174.107V226.616C174.106 227.111 174.507 227.512 175.002 227.512L175.001 227.512ZM184.275 225.72H175.897V222.109H184.275V225.72ZM198.207 135.085V202.836H100.792V135.085H198.207ZM198.207 117.361V133.293H130.887V114.612H195.459C196.975 114.612 198.207 115.845 198.207 117.361H198.207ZM100.792 117.361C100.792 115.845 102.023 114.612 103.539 114.612H129.095V133.293H100.791L100.792 117.361ZM100.792 217.568V204.627H198.207V217.568C198.207 219.084 196.976 220.316 195.46 220.316H103.539C102.023 220.317 100.792 219.084 100.792 217.568ZM117.543 225.72H109.165V222.109H117.543V225.72Z" fill="#042C58" stroke="#042C58" stroke-width="0.5"/>
<path d="M104.878 173.95C105.374 173.95 105.774 173.549 105.774 173.054V166.582C105.774 166.087 105.374 165.687 104.878 165.687C104.383 165.687 103.982 166.087 103.982 166.582V173.054C103.982 173.549 104.384 173.95 104.878 173.95Z" fill="#042C58" stroke="#042C58" stroke-width="0.5"/>
<path d="M104.878 199.636H114.45C114.945 199.636 115.346 199.236 115.346 198.741C115.346 198.245 114.945 197.845 114.45 197.845L105.774 197.844V180.664C105.774 180.168 105.374 179.768 104.878 179.768C104.383 179.768 103.982 180.168 103.982 180.664V198.74C103.982 199.235 104.384 199.636 104.878 199.636L104.878 199.636Z" fill="#042C58" stroke="#042C58" stroke-width="0.5"/>
<path d="M155.899 120.068C156.395 120.068 156.795 119.668 156.795 119.172V119.135C156.795 118.639 156.395 118.259 155.899 118.259C155.404 118.259 155.003 118.678 155.003 119.173C155.003 119.668 155.404 120.068 155.899 120.068V120.068Z" fill="#042C58" stroke="#042C58" stroke-width="0.5"/>
<path d="M155.899 124.866C156.395 124.866 156.795 124.466 156.795 123.97V123.933C156.795 123.437 156.395 123.054 155.899 123.054C155.404 123.054 155.003 123.474 155.003 123.97C155.003 124.466 155.404 124.866 155.899 124.866V124.866Z" fill="#042C58" stroke="#042C58" stroke-width="0.5"/>
<path d="M155.899 129.664C156.395 129.664 156.795 129.264 156.795 128.769V128.731C156.795 128.236 156.395 127.855 155.899 127.855C155.404 127.855 155.003 128.274 155.003 128.769C155.003 129.263 155.404 129.664 155.899 129.664V129.664Z" fill="#042C58" stroke="#042C58" stroke-width="0.5"/>
<path d="M136.876 76.8147C133.018 74.5921 131.689 69.6459 133.911 65.7891C136.134 61.9319 141.08 60.6016 144.937 62.8242C148.794 65.0469 150.124 69.993 147.902 73.8499C145.679 77.7071 140.733 79.0374 136.876 76.8147V76.8147ZM144.429 63.7055C141.058 61.7632 136.735 62.9254 134.793 66.2966C132.85 69.6682 134.012 73.9913 137.383 75.9336C140.754 77.8759 145.078 76.7137 147.02 73.3422C148.963 69.9709 147.8 65.6478 144.429 63.7055V63.7055Z" fill="#042C58" stroke="#042C58"/>
<path d="M119.74 96.6005C117.498 95.3083 116.724 92.4329 118.017 90.1904C119.308 87.9484 122.184 87.1746 124.427 88.4668C126.669 89.759 127.442 92.6349 126.15 94.8769C124.858 97.1195 121.982 97.8923 119.74 96.6005V96.6005ZM123.919 89.3484C122.163 88.3366 119.91 88.942 118.898 90.6983C117.886 92.4546 118.492 94.7069 120.248 95.7189C122.004 96.7308 124.257 96.1252 125.269 94.369C126.281 92.6129 125.675 90.3606 123.919 89.3484Z" fill="#042C58" stroke="#042C58"/>
<path d="M137.131 106.676C131.239 103.281 129.208 95.7254 132.603 89.8332C135.998 83.9412 143.554 81.9097 149.445 85.3046C155.337 88.6995 157.369 96.255 153.974 102.147C150.579 108.039 143.023 110.071 137.131 106.676ZM148.938 86.1859C143.531 83.0708 136.599 84.9351 133.484 90.341C130.369 95.7476 132.233 102.68 137.639 105.795C143.045 108.91 149.977 107.046 153.093 101.639C156.207 96.2336 154.344 89.3007 148.938 86.1859V86.1859Z" fill="#042C58" stroke="#042C58"/>
<path d="M160.068 105.876C159.255 105.407 158.975 104.366 159.443 103.553C159.912 102.741 160.953 102.46 161.766 102.929C162.578 103.397 162.859 104.438 162.39 105.251C161.922 106.064 160.88 106.343 160.068 105.876ZM161.258 103.811C160.931 103.623 160.513 103.735 160.324 104.062C160.136 104.388 160.249 104.806 160.576 104.995C160.902 105.183 161.32 105.07 161.508 104.744C161.697 104.417 161.584 103.999 161.258 103.811Z" fill="#042C58" stroke="#042C58"/>
<path d="M155.331 83.1987C154.208 82.5512 153.82 81.1101 154.468 79.9867C155.115 78.8629 156.556 78.4757 157.68 79.123C158.803 79.7705 159.191 81.2116 158.543 82.335C157.896 83.4584 156.455 83.8462 155.331 83.1987ZM157.172 80.0038C156.535 79.6365 155.716 79.8566 155.349 80.494C154.982 81.1315 155.202 81.9498 155.839 82.3171C156.477 82.6844 157.295 82.4644 157.662 81.8269C158.03 81.1894 157.81 80.3711 157.172 80.0038Z" fill="#042C58" stroke="#042C58"/>
<path d="M138.483 103.754C138.475 103.749 138.468 103.745 138.461 103.74C135.772 102.006 134.399 98.9442 134.691 95.34C134.714 95.0608 134.959 94.8517 135.239 94.875C135.521 94.8978 135.727 95.144 135.705 95.4235C135.444 98.6413 136.649 101.362 139.011 102.886C139.248 103.038 139.316 103.353 139.163 103.59C139.016 103.817 138.716 103.888 138.483 103.754L138.483 103.754Z" fill="#042C58" stroke="#042C58"/>
<path d="M139.237 75.2628C139.074 75.1685 138.969 74.9866 138.984 74.7862C139.004 74.5063 139.247 74.295 139.526 74.3149C141.914 74.4831 143.596 73.7546 144.82 72.0215C144.981 71.7926 145.299 71.738 145.529 71.8995C145.758 72.0615 145.813 72.3789 145.651 72.6079C144.222 74.6323 142.195 75.5222 139.455 75.3294C139.376 75.323 139.302 75.3 139.237 75.2628L139.237 75.2628Z" fill="#042C58" stroke="#042C58"/>
<path d="M120.869 91.168C120.738 91.0924 120.642 90.9587 120.619 90.7974C120.58 90.5192 120.773 90.2623 121.052 90.2237C122.036 90.0854 122.84 90.112 123.803 90.6668C124.046 90.8069 124.13 91.1178 123.989 91.3616C123.849 91.6053 123.538 91.6888 123.295 91.5484C122.576 91.1345 122.002 91.1177 121.193 91.2306C121.077 91.247 120.964 91.2225 120.869 91.168L120.869 91.168Z" fill="#042C58" stroke="#042C58"/>
<path d="M166.766 89.3897C164.523 88.0976 163.75 85.2222 165.042 82.9796C166.334 80.737 169.21 79.9639 171.452 81.256C173.695 82.5482 174.468 85.4236 173.176 87.6662C171.883 89.9087 169.008 90.6816 166.766 89.3897ZM170.944 82.1376C169.188 81.1259 166.936 81.7313 165.924 83.4876C164.912 85.2438 165.517 87.4961 167.273 88.5081C169.03 89.5201 171.282 88.9145 172.294 87.1582C173.306 85.4019 172.7 83.1496 170.944 82.1376V82.1376Z" fill="#042C58" stroke="#042C58"/>
<path d="M171.187 85.5157C171.074 85.4507 170.986 85.3427 170.95 85.2074C170.734 84.4065 170.34 83.9886 169.688 83.4966C169.464 83.3276 169.419 83.0085 169.588 82.7848C169.757 82.5602 170.077 82.5168 170.3 82.6848C171.093 83.2826 171.643 83.8688 171.932 84.9427C172.005 85.2145 171.845 85.4933 171.573 85.5663C171.438 85.6027 171.3 85.5807 171.187 85.5157L171.187 85.5157Z" fill="#042C58" stroke="#042C58"/>
</svg>
