<svg xmlns="http://www.w3.org/2000/svg" width="294.612" height="300.788" viewBox="0 0 294.612 300.788"><g transform="translate(-40.701 -0.013)"><path d="M63.823,215.1c-2.394,8.345,1.935,11.822,8.508,18.07,16.622,15.811,4.207,15.378,13.485,18.706l23.533,11.361c19.5,8.874,25.373,22.074,29.35,23.2,4.679,1.326,5.044,3.584,11.213,3.882,16.135.785,8.561,3.611,17.406,7.6,3.355,1.515,16.23,3.111,17.177,2.853,5.883-1.624,6.723-7.4,23.817-7.154,3.99.054,8.67,0,12.551.31,17.961,1.421,4.627,1.326,30.716-7.438,3.909-1.312,15.864-9.2,18.4-13.079,3.693-5.667.785-4.435,5.6-7.507,3.246-2.069,13.972-.256,24.7-20.328,4.612-8.615,4.356-6.236,9.266-11.943,5.208-6.059,14.133-30.08,21.328-40.63,2.327-2.61.812-4.572-.365-7.142-3.869-14.8,9.008-7.4,3.355-27.646-10.224-36.654,12.147-2.273-10.509-63.448-1.962-5.315-3.748-6.994-7.426-11.754-7.858-10.2,3.5-7.939-8.831-12.375l1.84-8.508L305.358,51.42c-7.8-7.709-9.589-.569-15.365-10.739-8.007-14.094-8.926-7.438-19.016-14.228-9.656-9.129-5.531-.474-17.5-8.074-2.272-1.46-9.345-6.437-11.618-6.83-25.319-4.423-6.8-1.676-17.866-4.922-15.959-4.679-2.732,7.061-18.84-3.34-8.467-5.478-6.506-3.422-16.595,1.326-8.968,4.22-3.137-.231-13.416.4-15.311.961-19.233,4.22-30.446,5.816-11.347,1.624-7.154,2.61-16.1,7.791-3.313,1.935-1.055,1.393-8.345,3.328-15.107,4-4.572-1.569-13.917,10.225l-5.613,9.859c-.69,1.135-8.98,1.624-11.023,2.8-11.335,6.465-6.492.122-13.16,16.324-7.669,18.638-4.125-.676-14.906,19.99-1.542,2.99-4.152,4.91-6.6,7.115,0,5.585,1.719,9.251.487,12.253-2.069,5.032-4.8,2.678-8.643,19.314-3.057,13.228-6.4,18.909-6.166,28.4L42,156.973c3.922,13.662-1.11,13.322,5.424,23.1,3.07,4.6-.541,5.126-1.771,11.292,3.489,2.245,3.72,3.462,7.642,4.356-7.872,4.6-1.676,10.008,2.1,16.664,1.947,3.921,3.124,4.207,8.466,2.719Z" fill="#b9e5fa" fill-rule="evenodd"/><path d="M166.441,146.446a.923.923,0,0,0,1.19-.532l1.14-2.982q3.515-.288,7.042-.5a.92.92,0,0,0,.865-.974.9.9,0,0,0-.974-.866q-3.837.225-7.665.548a.92.92,0,0,0-.783.589l-1.347,3.521a.923.923,0,0,0,.532,1.19Z" fill="#042c58"/><path d="M180.189,142.213a.31.31,0,0,0,.042,0q1.461-.063,2.924-.115a.924.924,0,0,0,.89-.955.935.935,0,0,0-.955-.889q-1.469.051-2.941.119a.921.921,0,0,0,.04,1.842Z" fill="#042c58"/><path d="M161.406,176.474a4.695,4.695,0,1,0,4.694,4.7A4.7,4.7,0,0,0,161.406,176.474Zm0,7.546a2.852,2.852,0,1,1,2.85-2.851A2.855,2.855,0,0,1,161.406,184.02Z" fill="#042c58"/><path d="M226.067,185.863a4.695,4.695,0,1,0-4.7-4.694A4.7,4.7,0,0,0,226.067,185.863Zm0-7.546a2.851,2.851,0,1,1-2.852,2.852A2.854,2.854,0,0,1,226.067,178.317Z" fill="#042c58"/><path d="M187.751,176.382h-3.9a.922.922,0,0,0,0,1.844h3.9a.922.922,0,1,0,0-1.844Z" fill="#042c58"/><path d="M204.04,176.382H193.08a.922.922,0,0,0,0,1.844h10.96a.922.922,0,0,0,0-1.844Z" fill="#042c58"/><path d="M205.965,171.928h-4.347a.922.922,0,1,0,0,1.843h4.347a.922.922,0,1,0,0-1.843Z" fill="#042c58"/><path d="M196.969,172.849a.922.922,0,0,0-.922-.922H181.924a.922.922,0,0,0,0,1.844h14.123A.922.922,0,0,0,196.969,172.849Z" fill="#042c58"/><path d="M213.688,181.461h-4.911l5.757-13.323a.922.922,0,0,0-.847-1.287H174.2a.922.922,0,0,0-.846,1.287l5.755,13.323H174.2a.922.922,0,1,0,0,1.843h39.489a.922.922,0,1,0,0-1.843Zm-32.571,0L175.6,168.7h36.684l-5.516,12.766Z" fill="#042c58"/><path d="M244.961,148.842l-9.229-2.259a2.723,2.723,0,0,0-3.456,2.63v2.582h-2.3l-8.4-21.7a7.529,7.529,0,0,0-6.349-4.7,275.713,275.713,0,0,0-42.992,0,7.518,7.518,0,0,0-6.344,4.7l-8.4,21.7h-2.3c-.157-1.685.519-3.548-1.081-4.762a2.663,2.663,0,0,0-2.346-.458l-9.287,2.274a2.756,2.756,0,0,0-2.011,2.631v2.387A2.737,2.737,0,0,0,143.2,156.6h7.743l2.1,4.136-1.133,1.647a10.623,10.623,0,0,0-1.471,5.394V195.64a3.592,3.592,0,0,0,3.586,3.588h11.145a3.591,3.591,0,0,0,3.586-3.588v-4.795H218.7l0,4.795a3.592,3.592,0,0,0,3.586,3.588h11.145a3.591,3.591,0,0,0,3.586-3.588V167.776c0-.087-.015-.172-.017-.257-.1-3.888-1.923-5.672-2.584-6.785l2.1-4.135h7.746A2.736,2.736,0,0,0,247,153.867V151.48a2.76,2.76,0,0,0-2.038-2.638Zm-11,14.477a8.71,8.71,0,0,1,.488.97H222.243a1.8,1.8,0,0,0-1.491,2.8l3.781,5.611a2.422,2.422,0,0,0,2.008,1.066h8.636V189h-82.89V173.765h8.646a2.423,2.423,0,0,0,2.009-1.068l3.777-5.606a1.8,1.8,0,0,0-1.489-2.8H153.011a8.334,8.334,0,0,1,.457-.917l1.4-2.041h0l1.794-2.59h74.144c.127.185,3.28,4.762,3.152,4.578Zm1.215,4.465v4.138h-8.636a.577.577,0,0,1-.479-.254l-3.731-5.535h12.673a8.731,8.731,0,0,1,.173,1.651Zm-82.883,0a8.95,8.95,0,0,1,.165-1.653l12.7-.024-3.745,5.558a.576.576,0,0,1-.48.256H152.3Zm12.9-1.725a0,0,0,0,0,0,0Zm-.357-28.323c8.694-.827,18.533-1.33,27.977-1.358V139.7h-4.4a.922.922,0,0,0,0,1.844h10.634a.922.922,0,0,0,0-1.844h-4.4v-3.318c9.633.029,19.573.558,27.977,1.358.78,2.04,7.4,19.372,7.323,19.162H223.3a12.595,12.595,0,0,0-25.124,0H157.518c8.032-21.042,7.241-18.971,7.314-19.162ZM215.059,156.9a4.418,4.418,0,0,0-8.643,0h-6.4a10.765,10.765,0,0,1,21.451,0Zm-1.915,0h-4.813a2.577,2.577,0,0,1,4.813,0ZM167.6,130.78a5.672,5.672,0,0,1,4.777-3.551,274.619,274.619,0,0,1,42.705,0,5.673,5.673,0,0,1,4.779,3.551l2.007,5.024a308.128,308.128,0,0,0-56.277,0Zm-16.1,23.976H143.2a.89.89,0,0,1-.89-.888V151.48a.9.9,0,0,1,.636-.848c9.279-2.265,10.4-2.982,10.4-1.419.2,2.186-.581,4.426.922,4.426h2.515l-1.432,3.747-1.114,1.62c-1.808-3.228-1.755-4.25-2.728-4.25Zm15.409,40.884a1.745,1.745,0,0,1-1.742,1.744H154.03a1.745,1.745,0,0,1-1.743-1.744v-4.795h14.631Zm68.261,0a1.744,1.744,0,0,1-1.742,1.744H222.291a1.745,1.745,0,0,1-1.743-1.744v-4.795h14.631Zm9.977-41.771a.888.888,0,0,1-.887.888h-8.312c-.959,0-.864.924-2.724,4.249l-1.108-1.609c-.073-.191-1.532-3.992-1.441-3.756,1.334-.16,3.436.52,3.436-.922v-3.5a.889.889,0,0,1,.35-.711.907.907,0,0,1,.793-.137l9.228,2.26a.9.9,0,0,1,.665.856Z" fill="#042c58"/><path d="M173.655,114.962a1.215,1.215,0,0,0,1.214-1.214v-22a1.218,1.218,0,0,0-1.217-1.217H141.907a.922.922,0,0,0-.922.922v22.586c0,1.779,1.286.526,32.671.923ZM142.83,92.376h30.195v20.741H142.83Z" fill="#042c58"/><path d="M141.2,190.517h-3.9V120.492h36.358a6.753,6.753,0,0,0,6.746-6.745v-22A6.754,6.754,0,0,0,173.652,85H136.375a.922.922,0,0,0-.922.922v104.6h-3.9a2.551,2.551,0,0,0-2.55,2.549v5.23a.922.922,0,0,0,.922.922h12.906a.922.922,0,0,0,.922-.922v-5.23a2.551,2.551,0,0,0-2.55-2.549ZM137.3,86.843h36.356a4.91,4.91,0,0,1,4.9,4.9v22a4.907,4.907,0,0,1-4.9,4.9H137.3v-31.8Zm4.609,110.532H130.844v-4.308a.707.707,0,0,1,.706-.706H141.2a.706.706,0,0,1,.705.706Z" fill="#042c58"/><path d="M157,94.968a23.1,23.1,0,0,0-3.826.3v15.259h1.995V104.34a6.874,6.874,0,0,0,1.6.139c3.311,0,5.91-1.6,5.91-5,0-2.535-1.645-4.514-5.682-4.514Zm-.182,7.9a6.7,6.7,0,0,1-1.649-.16v-6a8.345,8.345,0,0,1,1.878-.16c2.177,0,3.643.987,3.643,3.048,0,2.084-1.466,3.276-3.872,3.276Z" fill="#042c58"/></g></svg>