<svg width="295" height="301" fill="none" xmlns="http://www.w3.org/2000/svg"><path fill-rule="evenodd" clip-rule="evenodd" d="M23.122 215.091c-2.394 8.344 1.934 11.821 8.508 18.07 16.622 15.81 4.207 15.378 13.485 18.705l23.533 11.362c19.504 8.874 25.374 22.073 29.35 23.196 4.679 1.326 5.045 3.584 11.213 3.882 16.136.785 8.561 3.611 17.407 7.601 3.355 1.515 16.23 3.112 17.176 2.854 5.884-1.624 6.723-7.398 23.817-7.155 3.991.055 8.67 0 12.552.311 17.961 1.42 4.626 1.326 30.716-7.439 3.908-1.311 15.864-9.196 18.395-13.078 3.692-5.667.784-4.436 5.6-7.508 3.246-2.068 13.972-.256 24.696-20.327 4.612-8.615 4.356-6.236 9.266-11.943 5.207-6.06 14.133-30.08 21.328-40.63 2.327-2.61.812-4.572-.365-7.142-3.869-14.797 9.008-7.399 3.355-27.647-10.225-36.653 12.146-2.272-10.51-63.447-1.962-5.315-3.747-6.994-7.425-11.754-7.858-10.197 3.504-7.94-8.831-12.376l1.84-8.508-3.571-10.711c-7.803-7.71-9.589-.569-15.365-10.739-8.007-14.093-8.926-7.438-19.016-14.227-9.657-9.13-5.531-.475-17.501-8.074-2.273-1.46-9.346-6.437-11.618-6.83-25.32-4.423-6.803-1.676-17.867-4.922-15.959-4.68-2.732 7.06-18.84-3.34-8.466-5.48-6.506-3.423-16.595 1.325-8.967 4.22-3.136-.23-13.416.405-15.31.961-19.232 4.22-30.445 5.816-11.347 1.624-7.155 2.61-16.096 7.791-3.313 1.935-1.055 1.393-8.344 3.328-15.107 4.003-4.572-1.57-13.917 10.224l-5.613 9.86c-.69 1.135-8.98 1.624-11.024 2.799-11.335 6.464-6.492.121-13.16 16.324-7.669 18.638-4.125-.676-14.906 19.99-1.542 2.99-4.152 4.91-6.6 7.115 0 5.585 1.718 9.251.486 12.253-2.069 5.032-4.8 2.677-8.642 19.314C3.12 133.046-.22 138.728.01 148.223l1.284 8.737c3.922 13.662-1.11 13.322 5.425 23.101 3.07 4.6-.542 5.126-1.771 11.293 3.489 2.245 3.72 3.462 7.642 4.356-7.873 4.599-1.677 10.008 2.096 16.663 1.947 3.922 3.124 4.207 8.466 2.72l-.031-.002Z" fill="#B9E5FA"/><path d="M126.334 124.329 84 138.44h84.666l-42.332-14.111Z" stroke="#042C58" stroke-width="1.9" stroke-miterlimit="10" stroke-linecap="round" stroke-linejoin="round"/><path d="M84 138.44h14.11l28.223-14.111L84 138.44ZM112.222 138.44h14.111v-14.111l-14.111 14.111ZM126.334 124.329l14.11 14.111h14.112l-28.222-14.111ZM98.108 138.443a7.052 7.052 0 0 1-7.053 7.053A7.053 7.053 0 0 1 84 138.443h14.108ZM112.219 138.443a7.052 7.052 0 0 1-7.052 7.053 7.053 7.053 0 0 1-7.055-7.053h14.107ZM126.332 138.443a7.054 7.054 0 0 1-7.055 7.053 7.053 7.053 0 0 1-7.055-7.053h14.11ZM140.443 138.443a7.055 7.055 0 0 1-7.058 7.053 7.051 7.051 0 0 1-7.052-7.053h14.11ZM154.555 138.443a7.056 7.056 0 0 1-7.059 7.053 7.052 7.052 0 0 1-7.052-7.053h14.111ZM168.663 138.443a7.055 7.055 0 0 1-7.055 7.053 7.051 7.051 0 0 1-7.052-7.053h14.107Z" stroke="#042C58" stroke-width="1.9" stroke-miterlimit="10" stroke-linecap="round" stroke-linejoin="round"/><path d="M126.334 138.443c-.001 1.779-.681 3.379-1.762 4.62V209h3.525l-.001-65.937c-1.086-1.239-1.762-2.841-1.762-4.618v-.002ZM133.389 166.663l18.856 28.222h58.753v-3.524h-56.867l-17.812-26.659-2.93 1.961Z" stroke="#042C58" stroke-width="1.9" stroke-miterlimit="10" stroke-linecap="round" stroke-linejoin="round"/><path d="m196.888 209-13.187-24.699h-25.803L144.707 209l13.191-24.699h25.803L196.888 209ZM147.5 82v3.969V82ZM179.247 117.719h15.873-15.873ZM203.061 117.719h7.938-7.938ZM99.875 117.719h15.875-15.875ZM84 117.719h7.934H84ZM183.22 82l-13.273 13.265L183.22 82ZM111.778 82l13.272 13.275L111.778 82ZM162.295 82l-2.65 6.395 2.65-6.395ZM132.701 82l2.648 6.395L132.701 82ZM102.296 98.997 84 91.42l18.296 7.577ZM118.176 105.576l-7.939-3.288 7.939 3.288ZM211 91.414l-18.296 7.583L211 91.414ZM184.769 102.287l-7.937 3.283 7.937-3.283ZM126.334 124.329l38.185 12.727c5.368-4.726 8.775-11.625 8.775-19.339 0-14.251-11.548-25.799-25.794-25.799-14.249 0-25.798 11.548-25.798 25.799 0 2.703.446 5.298 1.22 7.75l3.412-1.138Z" stroke="#042C58" stroke-width="1.9" stroke-miterlimit="10" stroke-linecap="round" stroke-linejoin="round"/></svg>