<svg xmlns="http://www.w3.org/2000/svg" width="80.014" height="64.022" viewBox="0 0 80.014 64.022">
  <g id="icon-pool" transform="translate(-91.498 0.64)">
    <path id="Path_1293" d="M170.18,52.63a9.729,9.729,0,0,0-5.44,1.53,8.03,8.03,0,0,1-8.47,0,10.48,10.48,0,0,0-10.88,0,8.013,8.013,0,0,1-8.46,0,10.48,10.48,0,0,0-10.88,0,8.013,8.013,0,0,1-8.46,0,10.462,10.462,0,0,0-10.87,0,8.013,8.013,0,0,1-8.46,0,9.729,9.729,0,0,0-5.44-1.53,1.282,1.282,0,0,0-.14,2.56h.14a7.319,7.319,0,0,1,4.23,1.21,10.48,10.48,0,0,0,10.88,0,8.013,8.013,0,0,1,8.46,0,10.48,10.48,0,0,0,10.88,0,8.013,8.013,0,0,1,8.46,0,10.48,10.48,0,0,0,10.88,0,8.013,8.013,0,0,1,8.46,0,10.48,10.48,0,0,0,10.88,0,7.35,7.35,0,0,1,4.24-1.21,1.282,1.282,0,0,0,.14-2.56.378.378,0,0,0-.15,0Z"/>
    <path id="Path_1294" d="M160.51,60.82a7.319,7.319,0,0,1-4.23-1.21,10.48,10.48,0,0,0-10.88,0,8.013,8.013,0,0,1-8.46,0,10.48,10.48,0,0,0-10.88,0,8.013,8.013,0,0,1-8.46,0,10.462,10.462,0,0,0-10.87,0,7.319,7.319,0,0,1-4.23,1.21,1.284,1.284,0,0,0,0,2.56,9.729,9.729,0,0,0,5.44-1.53,8.013,8.013,0,0,1,8.46,0,10.48,10.48,0,0,0,10.88,0,8.013,8.013,0,0,1,8.46,0,10.48,10.48,0,0,0,10.88,0,8.013,8.013,0,0,1,8.46,0,9.729,9.729,0,0,0,5.44,1.53,1.282,1.282,0,0,0,.14-2.56Z"/>
    <path id="Path_1295" d="M116.83,17.13a1.27,1.27,0,0,0-1.25,1.28h0v31.4a1.25,1.25,0,1,0,2.5,0h0V18.41a1.251,1.251,0,0,0-1.25-1.28Z"/>
    <path id="Path_1296" d="M152.84-.62h-2.67a13.163,13.163,0,0,0-10.62,5.46h-4.4a4.049,4.049,0,0,0-2.23-5.19,3.813,3.813,0,0,0-1.42-.27h-2.67a13.421,13.421,0,0,0-13.25,13.57,1.25,1.25,0,1,0,2.5,0A10.9,10.9,0,0,1,128.83,1.94h2.67a1.45,1.45,0,0,1,0,2.9h-4a1.281,1.281,0,0,0-.07,2.56H140.2a1.241,1.241,0,0,0,1.04-.57,10.706,10.706,0,0,1,8.94-4.9h2.67a1.451,1.451,0,0,1,.07,2.9h-2.75a8.025,8.025,0,0,0-7.92,8.11V41.62a1.25,1.25,0,1,0,2.5,0V12.94a5.5,5.5,0,0,1,5.42-5.55h2.67a3.958,3.958,0,0,0,3.98-3.95,3.968,3.968,0,0,0-3.85-4.08c-.04.01-.08.01-.13.02Z" fill="#222631"/>
    <path id="Path_1297" d="M143.51,45.79a1.27,1.27,0,0,0-1.25,1.28V49.8a1.25,1.25,0,1,0,2.5,0V47.07A1.276,1.276,0,0,0,143.51,45.79Z"/>
    <path id="Path_1298" d="M136.92,37.61h-13.5v-2.9h13.5Zm1.25-5.47H122.16a1.264,1.264,0,0,0-1.25,1.28v5.46a1.264,1.264,0,0,0,1.25,1.28h16.01a1.264,1.264,0,0,0,1.25-1.28V33.42a1.27,1.27,0,0,0-1.25-1.28Z"/>
    <path id="Path_1299" d="M138.17,43.07H122.16a1.264,1.264,0,0,0-1.25,1.28v5.46a1.25,1.25,0,1,0,2.5,0V45.63h13.5v4.18a1.25,1.25,0,1,0,2.5,0V44.35A1.249,1.249,0,0,0,138.17,43.07Z"/>
    <path id="Path_1300" d="M136.92,26.69h-13.5V23.78h13.5Zm1.25-5.46H122.16a1.261,1.261,0,0,0-1.25,1.27v5.47a1.264,1.264,0,0,0,1.25,1.28h16.01a1.264,1.264,0,0,0,1.25-1.28V22.5a1.249,1.249,0,0,0-1.25-1.27Z"/>
    <path id="Path_1301" d="M136.92,15.76h-13.5V12.94a.079.079,0,0,1,.08-.08h13.42Zm1.25-5.46H123.5a2.615,2.615,0,0,0-2.58,2.65v4.1a1.264,1.264,0,0,0,1.25,1.28h16.01a1.264,1.264,0,0,0,1.25-1.28h0V11.59A1.281,1.281,0,0,0,138.17,10.3Z"/>
  </g>
</svg>
