<svg id="icon-freetime" xmlns="http://www.w3.org/2000/svg" width="70" height="70" viewBox="0 0 70 70">
  <path id="Path_168" data-name="Path 168" d="M68.633,92.1H62.49a4.31,4.31,0,0,0-3.111,1.336l-8.929,9.4V84.855h.137a4.108,4.108,0,0,0,0-8.216h-.137V69.247a1.367,1.367,0,1,0-2.734,0v7.393H39.559L34.008,74c-.035-.021-.071-.042-.108-.061l-.594-.293a7.53,7.53,0,1,0-6.784-2.659,7.34,7.34,0,0,0-2.48.32l-2.092-1.034a7.329,7.329,0,0,0-9.811,3.335l-4.726,9.6a5.746,5.746,0,0,0,2.657,7.715l1.482.714a10.464,10.464,0,0,0,.9,7.994l-.121.121h0l0,0-6.579,6.589-.025.022L2.4,109.689a1.372,1.372,0,0,0,0,1.937l6.284,6.293a1.076,1.076,0,0,0,.082.074h-7.4a1.369,1.369,0,0,0,0,2.739H14.492a4.917,4.917,0,0,0,3.474-1.426l9.952-9.823a1.817,1.817,0,0,1,1.283-.527H43.46a11.578,11.578,0,0,0,8.357-3.59l9.542-10.044a1.567,1.567,0,0,1,1.131-.486h4.776v24.526a1.367,1.367,0,1,0,2.734,0V93.468A1.368,1.368,0,0,0,68.633,92.1ZM51.953,80.747a1.37,1.37,0,0,1-1.367,1.369H39.732l.614-2.739h10.24A1.37,1.37,0,0,1,51.953,80.747ZM32.308,61.395a4.793,4.793,0,1,1-4.785,4.793A4.794,4.794,0,0,1,32.308,61.395Zm-4.083,12.8,4.342,2.144a1.318,1.318,0,0,0,.143.08l4.969,2.359-.614,2.74-5.526-2.624-.026-.011c-.013-.006-.025-.014-.037-.02l-3.028-1.487a1.369,1.369,0,0,0-1.2,2.459l1.8.882-3.522,7.153H16.372l5.7-11.585A4.593,4.593,0,0,1,28.225,74.194Zm-11.07,28.463-.094-.122-1.522-2.753h2.735A4.315,4.315,0,0,1,17.154,102.657Zm2.393-8.036a4.324,4.324,0,0,0-1.224,2.422H14.281a7.729,7.729,0,0,1,.112-5.278,1.363,1.363,0,0,0,.13-.213,1.384,1.384,0,0,0,.112-.345c.1-.2.2-.4.318-.6h10.68l-1.367,2.739H22.621A4.315,4.315,0,0,0,19.548,94.621Zm8.845,3.1,2.734-.736v3.76H28.392Zm2.734-3.572L27.952,95a3.317,3.317,0,0,0-.937-1.036l1.675-3.356H29.2a1.93,1.93,0,0,1,1.926,1.928ZM20.74,72.733l.454.225a7.3,7.3,0,0,0-1.57,2.115l-1.211,2.46-4.2-1.933.383-.777A4.593,4.593,0,0,1,20.74,72.733Zm-11.021,14a2.988,2.988,0,0,1,.145-2.308L13,78.058l4.2,1.933-4.232,8.6-.322.544-1.394-.672A2.982,2.982,0,0,1,9.719,86.73Zm5.82,13.052c-.007-.007,1.577,2.86,1.616,2.876s-6.6,6.617-6.6,6.617l-1.933-1.936S15.545,99.789,15.538,99.782ZM5.3,110.658l1.382-1.384,2,2a3.338,3.338,0,0,1,.76,3.529Zm10.742,6.7a2.2,2.2,0,0,1-1.554.638H10.539c.028-.024.056-.048.082-.074a6.085,6.085,0,0,0,1.44-6.28l6.876-6.887a7.044,7.044,0,0,0,2.072-5.009V97.7a1.613,1.613,0,0,1,1.612-1.614H25.1a.559.559,0,0,1,.558.559v10.943a1.4,1.4,0,0,0,.025.257ZM29.2,106.218h-.809V100.74h2.734V101.9l.091,1.581a4.108,4.108,0,0,1,3.867,2.739Zm8.715,0a6.868,6.868,0,0,0-4.055-4.944V92.536a4.669,4.669,0,0,0-4.66-4.667h-.634L31.5,81.906l5.932,2.817a1.323,1.323,0,0,0,.146.058l.025.007.06.019.028.006.03.009c.023,0,.046.007.069.011l.064.011a1.368,1.368,0,0,0,.168.011h9.689v20.26a8.819,8.819,0,0,1-4.255,1.1Zm0,0" transform="translate(0 -50.732)"/>
  <path id="Path_169" data-name="Path 169" d="M350.351,85.874a1.351,1.351,0,1,0-.955-.4A1.362,1.362,0,0,0,350.351,85.874Zm0,0" transform="translate(-301.262 -71.795)"/>
  <path id="Path_170" data-name="Path 170" d="M400.105,16.211A8.105,8.105,0,1,0,392,8.105,8.115,8.115,0,0,0,400.105,16.211Zm0-13.509a5.4,5.4,0,1,1-5.4,5.4A5.41,5.41,0,0,1,400.105,2.7Zm0,0" transform="translate(-338.211)"/>
</svg>
