<svg xmlns="http://www.w3.org/2000/svg" width="71" height="71" viewBox="0 0 71 71">
  <g id="noun_Food_1481542_2_" data-name="noun_Food_1481542 (2)" transform="translate(-9.5 -9.5)">
    <path id="Path_176" data-name="Path 176" d="M12.181,69.927v1.884H10.875a.853.853,0,0,0-.875.832v6.525a.853.853,0,0,0,.875.832h68.25A.853.853,0,0,0,80,79.168V72.643a.853.853,0,0,0-.875-.832H77.819V69.927c0-16.637-13.768-30.272-31.041-31.153a4.307,4.307,0,0,0,2.745-3.951,4.529,4.529,0,0,0-9.046,0,4.305,4.305,0,0,0,2.745,3.951C25.95,39.655,12.181,53.29,12.181,69.927ZM78.25,78.336H11.75V73.475h66.5ZM42.227,34.822A2.776,2.776,0,1,1,45,37.458,2.71,2.71,0,0,1,42.227,34.822ZM45,40.391c17.131,0,31.069,13.251,31.069,29.537v1.884H13.931V69.928C13.931,53.641,27.869,40.391,45,40.391Z" transform="translate(0 0)" stroke="#000" stroke-width="1"/>
    <path id="Path_177" data-name="Path 177" d="M56.872,51.092A24.7,24.7,0,0,1,76.179,68.811a1,1,0,0,0,1.93-.526A26.7,26.7,0,0,0,57.23,49.125a1,1,0,0,0-.358,1.967Z" transform="translate(-10 -6.566)" stroke="#000" stroke-width="1"/>
    <path id="Path_178" data-name="Path 178" d="M45.374,17.1a4.55,4.55,0,0,0,0,9.1,1,1,0,0,0,0-2,2.55,2.55,0,0,1,0-5.1,4.55,4.55,0,0,0,0-9.1,1,1,0,0,0,0,2,2.55,2.55,0,0,1,0,5.1Z" transform="translate(-4.348)" stroke="#000" stroke-width="1"/>
    <path id="Path_179" data-name="Path 179" d="M54.494,17.1a4.55,4.55,0,0,0,0,9.1,1,1,0,0,0,0-2,2.55,2.55,0,0,1,0-5.1,4.55,4.55,0,0,0,0-9.1,1,1,0,0,0,0,2,2.55,2.55,0,0,1,0,5.1Z" transform="translate(-5.633)" stroke="#000" stroke-width="1"/>
  </g>
</svg>
