<svg xmlns="http://www.w3.org/2000/svg" width="78" height="69.214" viewBox="0 0 78 69.214">
  <g id="icon-holiday-pets" transform="translate(0 -31.565)">
    <path id="Path_162" data-name="Path 162" d="M262,112.523a1.124,1.124,0,0,0-1.124,1.124V116.4a1.124,1.124,0,1,0,2.248,0v-2.756A1.124,1.124,0,0,0,262,112.523Zm0,0" transform="translate(-221.113 -68.609)"/>
    <path id="Path_163" data-name="Path 163" d="M63.472,76.264A9.769,9.769,0,0,0,54.728,90.3c-.072.032-.144.066-.214.1h-6.4V77.239a1.147,1.147,0,0,0-2.293,0V97.118h-13a5.251,5.251,0,0,1,5.228-5.184h2.14a1.145,1.145,0,0,0,1.147-1.143V60.379h3.005a11.336,11.336,0,0,0,8.143-3.449l2.152,8.917a1.145,1.145,0,0,0,1.114.876,1.128,1.128,0,0,0,.269-.032,1.142,1.142,0,0,0,.847-1.378l-.277-1.149a28.479,28.479,0,0,1,2.759,2.007,1.144,1.144,0,1,0,1.459-1.763,28.669,28.669,0,0,0-4.96-3.317l-1.579-6.546a11.439,11.439,0,0,0,.594-9.983,9.657,9.657,0,0,0-7.279-12.98,1.149,1.149,0,0,0-1.052.355A9.594,9.594,0,0,0,45.1,33.985a9.55,9.55,0,0,0-4.818-2.4,1.149,1.149,0,0,0-1.052.355,9.65,9.65,0,0,0-2.352,8.377,11.482,11.482,0,0,0-3.33,4.97H32.277a7.5,7.5,0,0,0-1.286.112,3.215,3.215,0,0,0-2-.7H26.8a3.242,3.242,0,0,0-1.73,5.982,7.548,7.548,0,0,0,7.208,9.7h6.767v29.27H38.05a7.542,7.542,0,0,0-7.519,7.468H29.178v-.01a1.91,1.91,0,0,0-1.86-1.9V88.142a1.147,1.147,0,0,0-2.293,0v7.443a1.91,1.91,0,0,0,1.86,1.9v1.006H23.4V88.7a1.147,1.147,0,0,0-2.293,0v8.421H20.88v-.01a1.909,1.909,0,0,0-1.71-1.894V88.7a1.147,1.147,0,0,0-2.293,0v6.888a1.909,1.909,0,0,0,1.711,1.894v1.015h-3.34V88.7a1.147,1.147,0,0,0-2.293,0v8.421H8.419c.214-8.336,2.752-13.737,4.861-16.814.439-.64.878-1.21,1.3-1.714a11.241,11.241,0,0,0,6.93,2.333,11.6,11.6,0,0,0,3.511-.54v2.275a1.147,1.147,0,0,0,2.293,0v-3.3a9.255,9.255,0,0,0,4.752-7.9,8.506,8.506,0,0,0-.134-1.5,7.7,7.7,0,0,0,1.756-7.454,1.624,1.624,0,0,0-1.1-1.09,7.785,7.785,0,0,0-2.2-.318,7.691,7.691,0,0,0-4.774,1.645,11.686,11.686,0,0,0-8.215,0A7.693,7.693,0,0,0,12.633,61.1a7.784,7.784,0,0,0-2.2.318,1.622,1.622,0,0,0-1.1,1.093,7.7,7.7,0,0,0,1.756,7.452,8.561,8.561,0,0,0-.133,1.5,8.767,8.767,0,0,0,1.991,5.52,23.631,23.631,0,0,0-1.563,2.033A28.088,28.088,0,0,0,7.9,86.209a14.76,14.76,0,0,1,2.334-8.418,2.653,2.653,0,0,0-4.472-2.854A20.069,20.069,0,0,0,6.1,97.117H1.147a1.143,1.143,0,1,0,0,2.285H13.031a1.912,1.912,0,0,0,1.834,1.376h4.1A1.911,1.911,0,0,0,20.8,99.4h.376a1.912,1.912,0,0,0,1.834,1.376h4.253A1.912,1.912,0,0,0,29.1,99.4H60.535a1.143,1.143,0,1,0,0-2.285H52.543a5.28,5.28,0,0,1,4.126-5.065,1.142,1.142,0,0,0,.7-1.765,7.482,7.482,0,0,1,6.1-11.739,1.142,1.142,0,1,0,0-2.285ZM40.511,33.975a7.278,7.278,0,0,1,3.25,1.9c.166.167.322.341.469.52a9.844,9.844,0,0,0-.178,1.125A11.275,11.275,0,0,0,39,38.85,7.366,7.366,0,0,1,40.511,33.975ZM26.8,48.9a.959.959,0,0,1,0-1.918H28.99a.959.959,0,0,1,0,1.918Zm5.478,9.192a5.257,5.257,0,0,1-4.962-6.907H28.99a3.245,3.245,0,0,0,3.238-3.244,3.151,3.151,0,0,0-.023-.37l.072,0h.758a11.446,11.446,0,0,0,4.484,10.524H32.276Zm2.968-9.15A9.135,9.135,0,0,1,44.1,39.8a9.629,9.629,0,0,0,1.412,3.852,1.145,1.145,0,0,0,1.937-1.223,7.41,7.41,0,0,1,.362-8.454,7.276,7.276,0,0,1,3.249,1.9,7.374,7.374,0,0,1,1.314,8.644,1.14,1.14,0,0,0,.488,1.541,1.2,1.2,0,0,0,.127.057,9.105,9.105,0,1,1-17.744,2.833ZM30.4,63.387a5.469,5.469,0,0,1,1.193.132,5.411,5.411,0,0,1-.564,3.838,9.811,9.811,0,0,0-3.079-3.39A5.424,5.424,0,0,1,30.4,63.387Zm-8.881.9c4.556,0,8.263,3.219,8.263,7.176s-3.707,7.176-8.263,7.176-8.263-3.219-8.263-7.176S16.958,64.286,21.514,64.286ZM12,67.357a5.412,5.412,0,0,1-.564-3.838,5.469,5.469,0,0,1,3.643.448A9.824,9.824,0,0,0,12,67.357ZM6.422,93.019A17.8,17.8,0,0,1,7.7,76.169.361.361,0,0,1,8,76a.352.352,0,0,1,.193.057.36.36,0,0,1,.11.5A17.076,17.076,0,0,0,6.622,91.584Q6.511,92.284,6.422,93.019Zm43.828,4.1H48.113V92.682h3.644A7.543,7.543,0,0,0,50.25,97.118Zm0,0" transform="translate(0 0)"/>
    <path id="Path_164" data-name="Path 164" d="M115.608,273.437a1.124,1.124,0,0,0,1.124-1.124v-1.279a1.124,1.124,0,1,0-2.248,0v1.279A1.124,1.124,0,0,0,115.608,273.437Zm0,0" transform="translate(-97.035 -202.002)"/>
    <path id="Path_165" data-name="Path 165" d="M153.112,273.437a1.124,1.124,0,0,0,1.124-1.124v-1.279a1.124,1.124,0,1,0-2.248,0v1.279A1.123,1.123,0,0,0,153.112,273.437Zm0,0" transform="translate(-128.822 -202.002)"/>
    <path id="Path_166" data-name="Path 166" d="M112.738,303.112a2.99,2.99,0,0,0,1.651-.5,2.994,2.994,0,0,0,4.644-2.5,1.124,1.124,0,0,0-2.248,0,.744.744,0,0,1-1.4.347,1.124,1.124,0,0,0-1.986,0,.744.744,0,0,1-1.4-.347,1.124,1.124,0,0,0-2.248,0A3,3,0,0,0,112.738,303.112Zm0,0" transform="translate(-92.989 -226.647)"/>
    <path id="Path_167" data-name="Path 167" d="M424.936,299.132h-4.154V293.1a12.5,12.5,0,0,0,5.131-9.129,21.1,21.1,0,0,0-.4-7.253,1.793,1.793,0,0,0-1.734-1.346,1.869,1.869,0,0,0-.208.012,1.8,1.8,0,0,0-1.583,1.743,9.41,9.41,0,0,1-2.579,6.022,31.97,31.97,0,0,0-6.52-12.3,1.124,1.124,0,0,0-1.71,1.459c4.66,5.461,7.126,12.26,7.338,20.22l.015,2.248v4.363h-4.462a1.124,1.124,0,1,0,0,2.248h10.864a1.124,1.124,0,0,0,0-2.248Zm-4.909-13.414a13.373,13.373,0,0,0,3.731-5.645,18.383,18.383,0,0,1-.075,3.616,10.821,10.821,0,0,1-3.032,6.587A38.769,38.769,0,0,0,420.027,285.718Zm0,0" transform="translate(-348.061 -201.954)"/>
  </g>
</svg>
