<svg xmlns="http://www.w3.org/2000/svg" width="70" height="70" viewBox="0 0 70 70">
  <g id="icon-parking" transform="translate(-1 -0.9)">
    <g id="Group_93" data-name="Group 93" transform="translate(1 0.9)">
      <path id="Path_128" data-name="Path 128" d="M4.416,35.059h34.82a3.433,3.433,0,0,0,3.416-3.416V10.376A3.433,3.433,0,0,0,39.236,6.96H28.878V3.1h6.281a1.1,1.1,0,0,0,1.1-1.1,1.041,1.041,0,0,0-1.1-1.1c-15.537.11-11.79.11-26.556.11a1.1,1.1,0,0,0-1.1,1.1,1.041,1.041,0,0,0,1.1,1.1h6.281V6.96H4.416A3.433,3.433,0,0,0,1,10.376V31.753A3.412,3.412,0,0,0,4.416,35.059ZM16.977,3.1h9.807V6.85H16.977ZM3.094,10.376A1.223,1.223,0,0,1,4.306,9.164h34.82a1.223,1.223,0,0,1,1.212,1.212V31.753a1.223,1.223,0,0,1-1.212,1.212H4.416A1.223,1.223,0,0,1,3.2,31.753V10.376Z" transform="translate(-1 -0.9)"/>
      <path id="Path_129" data-name="Path 129" d="M16.8,26.8a1.1,1.1,0,0,0,1.1-1.1V20.854h2.975a4.077,4.077,0,1,0,0-8.154H16.8a1.1,1.1,0,0,0-1.1,1.1V25.813A1.017,1.017,0,0,0,16.8,26.8Zm1.1-11.9h2.975a1.983,1.983,0,0,1,0,3.967H17.9Z" transform="translate(0.36 0.157)"/>
      <path id="Path_130" data-name="Path 130" d="M2.094,61.427h5.8a7.721,7.721,0,0,0,15.313,0H49.016a7.721,7.721,0,0,0,15.312,0h5.578A1.1,1.1,0,0,0,71,60.325V55.918a1.1,1.1,0,0,0-1.094-1.1H68.047V53.053A18.882,18.882,0,0,0,49.234,34.1H31.844a10.593,10.593,0,0,0-10.5,9.586h-5.8A12.163,12.163,0,0,0,3.516,54.816H2.094A1.1,1.1,0,0,0,1,55.918v4.408A1.037,1.037,0,0,0,2.094,61.427Zm13.344,4.628a5.62,5.62,0,1,1,5.578-5.62A5.623,5.623,0,0,1,15.438,66.055Zm41.125,0a5.62,5.62,0,1,1,5.578-5.62A5.623,5.623,0,0,1,56.563,66.055ZM47.484,36.3h0c4.7,0,7.437,4.959,8.2,7.383H42.344V36.3Zm-15.641,0h8.422v7.383H23.531A8.5,8.5,0,0,1,31.844,36.3ZM3.078,57.019H4.5a1.1,1.1,0,0,0,1.094-1.1A10.027,10.027,0,0,1,15.547,45.89H57a1.1,1.1,0,0,0,1.094-1.1,13.405,13.405,0,0,0-3.938-7.713A16.849,16.849,0,0,1,65.969,53.163v2.865a1.1,1.1,0,0,0,1.094,1.1h1.859v2.2h-4.7a7.721,7.721,0,0,0-15.312,0H23.094a7.721,7.721,0,0,0-15.313,0h-4.7Z" transform="translate(-1 1.851)"/>
      <path id="Path_131" data-name="Path 131" d="M33.048,49.181a5.335,5.335,0,0,0,2.865.882,5.11,5.11,0,0,0,2.755-.882,1.1,1.1,0,1,0-1.322-1.763,2.732,2.732,0,0,1-3.2,0,1.024,1.024,0,0,0-1.432.331A.945.945,0,0,0,33.048,49.181Z" transform="translate(1.93 3.345)"/>
      <path id="Path_132" data-name="Path 132" d="M14.526,54.8a3.526,3.526,0,1,0,3.526,3.526A3.481,3.481,0,0,0,14.526,54.8Zm0,4.848a1.322,1.322,0,0,1,0-2.645,1.422,1.422,0,0,1,1.322,1.322A1.27,1.27,0,0,1,14.526,59.648Z" transform="translate(-0.072 3.961)"/>
      <path id="Path_133" data-name="Path 133" d="M52.126,54.8a3.526,3.526,0,1,0,3.526,3.526A3.55,3.55,0,0,0,52.126,54.8Zm0,4.848a1.322,1.322,0,0,1,0-2.645,1.443,1.443,0,0,1,1.432,1.322A1.635,1.635,0,0,1,52.126,59.648Z" transform="translate(3.419 3.961)"/>
    </g>
  </g>
</svg>
