<svg xmlns="http://www.w3.org/2000/svg" width="64.362" height="71.6" viewBox="0 0 64.362 71.6">
  <path id="icon-other" d="M75.168,64.121l-6.4-14.6,6.049-14.951a2,2,0,0,0,0-1.728,1.848,1.848,0,0,0-1.556-.691H57.711V22.812a2.416,2.416,0,0,0-2.42-2.42H28.5a9.523,9.523,0,0,0,.173-1.556,8.037,8.037,0,0,0-16.074,0,7.966,7.966,0,0,0,2.506,5.79V75.269A5.514,5.514,0,0,0,20.637,80.8a5.57,5.57,0,0,0,5.531-5.531V55.133H44.662v9.42a2.416,2.416,0,0,0,2.42,2.42H73.7a2.343,2.343,0,0,0,1.556-1.123A2.411,2.411,0,0,0,75.168,64.121ZM13.551,18.751a7,7,0,1,1,14,0,7.366,7.366,0,0,1-.259,1.988c-.086.346-.259.6-.346.951,0,.086-.086.086-.086.173-.173.259-.346.6-.519.864h0c-.173.259-.432.519-.6.778l-.086.086a2.33,2.33,0,0,1-.691.6c-.086,0-.086.086-.173.086l-.086.086h0a4.823,4.823,0,0,1-.691.432c-.086.086-.173.086-.259.173a3.07,3.07,0,0,1-.778.346h0c-.086,0-.173.086-.259.086-.259.086-.6.173-.864.259h-.173a4.207,4.207,0,0,1-1.037.086H19.514c-.259-.086-.519-.086-.864-.173h0c-.173,0-.259-.086-.432-.173-.086,0-.173-.086-.259-.086-.173-.086-.259-.086-.432-.173-.086,0-.086-.086-.173-.086-.173-.086-.259-.173-.432-.259-.086,0-.086-.086-.173-.086-.173-.086-.259-.173-.432-.259l-.086-.086a.675.675,0,0,1-.346-.346A6.99,6.99,0,0,1,13.551,18.751ZM25.044,75.183a4.494,4.494,0,1,1-8.988,0V25.491A10.605,10.605,0,0,0,18.3,26.528h0a3.675,3.675,0,0,0,.951.173h.259c.259,0,.519.086.778.086h.951a.779.779,0,0,0,.432-.086h.432a.317.317,0,0,0,.259-.086c.086,0,.259-.086.346-.086s.259-.086.346-.086h.173a4.632,4.632,0,0,0,.951-.432h0a4.824,4.824,0,0,0,.691-.432c0,.173.086.432.086.6v49ZM26.081,26.1V24.627l.432-.432.173-.173a4.794,4.794,0,0,1,.519-.691.085.085,0,0,1,.086-.086c.173-.259.259-.432.432-.691,0-.086.086-.173.086-.259.086-.259.173-.432.259-.691a.085.085,0,0,1,.086-.086H55.2A1.365,1.365,0,0,1,56.588,22.9V52.8A1.365,1.365,0,0,1,55.2,54.183H26.081ZM54.859,55.133l-8.988,9.679c-.086,0-.173-.173-.173-.778v-8.9ZM74.217,65.417c-.173.346-.6.432-.778.519H47a1.6,1.6,0,0,1-.6-.173.085.085,0,0,0,.086-.086L56.415,54.96a.268.268,0,0,0,.086-.173,2.431,2.431,0,0,0,1.123-2.074V33.269H73.18a1.149,1.149,0,0,1,.691.259c.086.173.086.346-.086.691L67.649,49.343a.392.392,0,0,0,0,.432l6.568,14.778A1.465,1.465,0,0,1,74.217,65.417Z" transform="translate(-11.8 -10)" stroke="#000" stroke-width="1.6"/>
</svg>
