<svg xmlns="http://www.w3.org/2000/svg" width="68.521" height="68.23" viewBox="0 0 68.521 68.23">
  <g id="icon-wellness" transform="translate(26.78 -259.58)">
    <path id="Path_1308" d="M-24.15,276.59l-.02-.79.79.02c3.58.1,11.3.78,17.75,4.75l.41.25-.06.48a22.919,22.919,0,0,0-.18,2.87c-.01,8.69,5.01,16.3,8.61,20.58l1.18,1.4-1.82-.17c-5.13-.49-13.22-2.12-18.8-7.68C-23.05,291.51-24.01,280.94-24.15,276.59Zm12.11-2.34a43.582,43.582,0,0,1,2.11-7.42l.28-.74.72.32a43.7,43.7,0,0,1,6.72,3.75l.55.38-.31.6a32.743,32.743,0,0,0-2.47,6.04l-.26.9-.82-.45a32.745,32.745,0,0,0-6.02-2.52l-.64-.2ZM6.94,263.26l.54-.58.54.58c2.6,2.76,8.06,9.27,9.46,17.19l.01.06a22.435,22.435,0,0,1,.33,3.66c-.03,9.58-6.81,17.72-9.8,20.9l-.54.58-.55-.58c-2.98-3.18-9.77-11.32-9.79-20.9C-2.83,274.58,3.96,266.44,6.94,263.26Zm10.22,6.91a43.424,43.424,0,0,1,6.73-3.75l.72-.32.29.74a43.551,43.551,0,0,1,2.1,7.42l.13.66-.64.2a33.041,33.041,0,0,0-6.02,2.52l-.82.45-.26-.9a32.744,32.744,0,0,0-2.47-6.04l-.31-.59Zm21.19,5.65.79-.02-.02.79c-.13,4.35-1.08,14.89-7.86,21.71-5.56,5.54-13.66,7.17-18.79,7.67l-1.82.17,1.18-1.4c3.6-4.29,8.62-11.89,8.6-20.57a22.918,22.918,0,0,0-.18-2.87l-.06-.48.41-.25C27.02,276.61,34.77,275.93,38.35,275.82ZM10.69,308.77l1.96-.18c4.83-.44,12.07-1.89,17.85-6.2l.36-.27,2.16-1.87.65-.7c7.38-7.89,8.08-19.93,8.07-23.84,0-.72-.02-1.15-.02-1.25a1.315,1.315,0,0,0-1.23-1.23c-.08,0-.52-.03-1.24-.03a45.437,45.437,0,0,0-8.85.91l-.74.15-.15-.74a44.178,44.178,0,0,0-3.04-9.65,1.3,1.3,0,0,0-1.17-.74,1.251,1.251,0,0,0-.43.07,43.613,43.613,0,0,0-8.96,4.67l-.63.42-.42-.63a43.513,43.513,0,0,0-6.51-7.75,1.3,1.3,0,0,0-1.73,0A43.568,43.568,0,0,0,.1,267.66l-.42.63-.63-.42a43.381,43.381,0,0,0-8.96-4.67,1.291,1.291,0,0,0-.43-.07,1.294,1.294,0,0,0-1.17.74,44.178,44.178,0,0,0-3.04,9.65l-.14.74-.74-.15a46.14,46.14,0,0,0-8.85-.91c-.72,0-1.16.02-1.24.03a1.315,1.315,0,0,0-1.23,1.23c0,.09-.03.53-.03,1.25-.01,3.92.69,15.94,8.07,23.84l.66.7,2.16,1.87.36.27c5.79,4.32,13.04,5.76,17.86,6.2l1.96.18Z"/>
    <path id="Path_1309" d="M33.85,300.42l-.67-.37-.17.18-1.95,1.68.2.09A28.893,28.893,0,0,1,38,306.59l.62.56-.61.56c-2.47,2.22-7.78,6.36-14.05,6.38-4.68-.01-8.85-2.36-11.69-4.45l-1.24-.92-.34.03H4.29l-.34-.03-1.24.92a27.867,27.867,0,0,1-3.67,2.3c-.04.02-.08.04-.17.09a17.7,17.7,0,0,1-7.86,2.07c-6.24-.02-11.57-4.17-14.05-6.38l-.61-.56.61-.56a28.852,28.852,0,0,1,6.74-4.58l.2-.09-1.94-1.68-.17-.18-.67.37a31.611,31.611,0,0,0-7.55,5.87,1.326,1.326,0,0,0-.33.87,1.326,1.326,0,0,0,.33.87c.27.33,7.98,8.71,17.44,8.67a19.107,19.107,0,0,0,6.92-1.39l.74-.29.25.75a30.37,30.37,0,0,0,7.7,11.69,1.312,1.312,0,0,0,1.74,0,30.3,30.3,0,0,0,7.7-11.69l.25-.75.74.29a19.108,19.108,0,0,0,6.92,1.39c9.46.04,17.18-8.35,17.44-8.67a1.312,1.312,0,0,0,0-1.74A31.49,31.49,0,0,0,33.85,300.42Zm-20.1,13.97a26.293,26.293,0,0,1-5.72,9.67l-.56.61-.55-.61a26.293,26.293,0,0,1-5.72-9.67l-.16-.56.5-.29a33.423,33.423,0,0,0,5.43-4.04l.51-.47.51.47a32.578,32.578,0,0,0,5.43,4.04l.51.3Z"/>
  </g>
</svg>
