<svg xmlns="http://www.w3.org/2000/svg" width="71.082" height="54.047" viewBox="0 0 71.082 54.047">
  <g id="icon-holiday-children" transform="translate(0.5 -19.5)">
    <g id="Group_89" data-name="Group 89" transform="translate(0 20)">
      <path id="Path_108" data-name="Path 108" d="M31,92.1c0,2.136.912,3.31,2.711,3.488l.055,0a.553.553,0,0,0,.054-1.1c-.848-.084-1.714-.434-1.714-2.387V79.553a.553.553,0,1,0-1.106,0Z" transform="translate(-14.057 -46.974)" stroke="#000" stroke-width="1"/>
      <circle id="Ellipse_14" data-name="Ellipse 14" cx="0.553" cy="0.553" r="0.553" transform="translate(16.951 27.071)" stroke="#000" stroke-width="1"/>
      <circle id="Ellipse_15" data-name="Ellipse 15" cx="0.553" cy="0.553" r="0.553" transform="translate(48.479 47.515)" stroke="#000" stroke-width="1"/>
      <path id="Path_109" data-name="Path 109" d="M40.1,73.249a4.119,4.119,0,0,0,2.511,1.125q.13.009.255.008a3.554,3.554,0,0,0,2.435-.952,3.506,3.506,0,0,0,.856-4.029,5.75,5.75,0,0,0-.681-1.111c-.392-.489-13.1-13.393-13.74-13.946a5.583,5.583,0,0,0-1.418-.914,10.009,10.009,0,0,1-1.094.833c.093,0,.168.006.209.009a4.378,4.378,0,0,1,1.577.907c.836.728,13.2,13.336,13.6,13.8a4.674,4.674,0,0,1,.545.892,2.391,2.391,0,0,1-.6,2.742,2.52,2.52,0,0,1-1.869.655,3.032,3.032,0,0,1-1.855-.852c-.262-.231-6.456-6.438-6.728-6.707a1.112,1.112,0,0,0-.751-.406c-.71,0-.711.823-.712,1.133,0,1.888-.021,10.166-.038,15.391-.016,4.622-4.357,5.592-8,5.592H21.32c-2.136,0-5.032-.351-6.692-2.021a4.81,4.81,0,0,1-1.322-3.565c.032-5.217.053-13.732-.012-15.615V66.2c-.021-.256.045-.568-.181-.757a.525.525,0,0,0-.524-.036c-.189.078-.3.259-.433.4-1.166,1.182-6.27,6.428-6.325,6.482a3.2,3.2,0,0,1-2.041,1.023,2.466,2.466,0,0,1-1.868-.655,2.4,2.4,0,0,1-.814-1.694v-.155A4.173,4.173,0,0,1,2.663,68.18l.045-.045c3.326-3.366,12.367-12.213,13.166-12.91A4.405,4.405,0,0,1,17.5,54.3c.114-.01.42-.019.869-.028a9.96,9.96,0,0,1-1.279-1,5.492,5.492,0,0,0-1.94,1.115c-.808.7-9.891,9.592-13.227,12.967l-.045.045A5.084,5.084,0,0,0,0,70.807l0,.2a3.535,3.535,0,0,0,1.17,2.465,3.5,3.5,0,0,0,2.691.944A4.356,4.356,0,0,0,6.587,73.1c.034-.032,4.4-4.517,5.62-5.764.041,2.96.021,9.968-.007,14.493a5.877,5.877,0,0,0,1.643,4.352c1.526,1.536,4.112,2.348,7.477,2.348h3.286c5.855,0,9.087-2.378,9.1-6.694.016-4.865.034-12.378.038-14.915C34.086,67.258,39.831,73.013,40.1,73.249Z" transform="translate(0 -35.48)" stroke="#000" stroke-width="1"/>
      <path id="Path_110" data-name="Path 110" d="M35.853,41.7A8.851,8.851,0,1,0,27,32.851,8.851,8.851,0,0,0,35.853,41.7Zm0-16.6a7.745,7.745,0,1,1-7.745,7.745A7.754,7.754,0,0,1,35.853,25.106Z" transform="translate(-12.292 -21.787)" stroke="#000" stroke-width="1"/>
      <path id="Path_111" data-name="Path 111" d="M61.711,37.312c-.668.43-.747.864-.7,1.152s.252.635.945.791a4.233,4.233,0,0,0,.935.107,4.326,4.326,0,0,0,4.113-4.5,7.757,7.757,0,0,0-.225-1.585,7.747,7.747,0,0,1-.237-2.669,2.029,2.029,0,0,1,.568-1.218c-.009.189-.025.377-.025.569,0,5.5,3.963,9.957,8.852,9.957s8.852-4.458,8.852-9.957c0-.192-.016-.379-.025-.569a2.029,2.029,0,0,1,.568,1.219,7.744,7.744,0,0,1-.237,2.669,7.762,7.762,0,0,0-.225,1.585,4.326,4.326,0,0,0,4.112,4.5,4.252,4.252,0,0,0,.936-.107c.693-.157.9-.517.945-.791s-.029-.721-.7-1.152a3.581,3.581,0,0,1-1.285-1.336c-.726-1.465-.083-2.817.661-4.384.723-1.523,1.543-3.249.915-5.19-.52-1.607-2.053-2.528-4.207-2.528a8.2,8.2,0,0,0-2.951.56,8.332,8.332,0,0,0-14.725,0,8.2,8.2,0,0,0-2.951-.56c-2.153,0-3.687.922-4.207,2.528-.628,1.941.192,3.667.915,5.19.744,1.567,1.387,2.92.661,4.384A3.584,3.584,0,0,1,61.711,37.312ZM86.253,24.979c.965,0,2.658.229,3.154,1.762s-.166,2.908-.863,4.375c-.8,1.674-1.617,3.4-.653,5.35a4.658,4.658,0,0,0,1.625,1.741,3.088,3.088,0,0,1-.533.048,3.234,3.234,0,0,1-3.006-3.412,7.126,7.126,0,0,1,.2-1.342,8.717,8.717,0,0,0,.247-3.062,2.487,2.487,0,0,0-1.789-2.293,10.73,10.73,0,0,0-.824-2.723A7.2,7.2,0,0,1,86.253,24.979ZM75.94,21.106c4.271,0,7.745,3.971,7.745,8.851s-3.474,8.851-7.745,8.851-7.745-3.971-7.745-8.851S71.669,21.106,75.94,21.106Zm-12.6,10.01c-.7-1.467-1.355-2.852-.862-4.375s2.189-1.762,3.154-1.762a7.2,7.2,0,0,1,2.44.444,10.727,10.727,0,0,0-.824,2.723,2.486,2.486,0,0,0-1.789,2.293A8.716,8.716,0,0,0,65.7,33.5a7.132,7.132,0,0,1,.2,1.342,3.173,3.173,0,0,1-3.539,3.365,4.663,4.663,0,0,0,1.625-1.742C64.952,34.521,64.13,32.79,63.335,31.116Z" transform="translate(-28.064 -20)" stroke="#000" stroke-width="1"/>
      <path id="Path_112" data-name="Path 112" d="M70.928,53.155a5.467,5.467,0,0,0-2.071,1.162c-.295.257-1.519,1.435-3.131,3l.778.786c1.606-1.563,2.811-2.723,3.079-2.957a4.4,4.4,0,0,1,1.623-.925c.172-.014.782-.028,1.672-.039a10.1,10.1,0,0,1-1.331-1.076A4.61,4.61,0,0,0,70.928,53.155Z" transform="translate(-29.829 -35.025)" stroke="#000" stroke-width="1"/>
      <path id="Path_113" data-name="Path 113" d="M100.014,69.464a5.744,5.744,0,0,0-.681-1.111c-.394-.493-12.375-13.24-13.187-13.946a5.5,5.5,0,0,0-1.611-.992,10.023,10.023,0,0,1-1.158.9q.358.008.467.016a4.383,4.383,0,0,1,1.576.906c.732.637,12.548,13.205,13.048,13.8a4.678,4.678,0,0,1,.544.892,2.391,2.391,0,0,1-.6,2.742,2.519,2.519,0,0,1-1.869.655,3.032,3.032,0,0,1-1.855-.852c-.263-.232-3.213-3.188-4.975-4.954-.817-.818-1.484-1.487-1.752-1.754a1.111,1.111,0,0,0-.751-.406c-.709,0-.711.823-.711,1.133,0,1.888-.021,10.166-.038,15.391-.016,4.622-4.356,5.592-8,5.592H75.177c-2.136,0-5.032-.351-6.692-2.021A4.811,4.811,0,0,1,67.164,81.9c.017-2.8.031-6.362.03-9.415l-1.107-1.106c0,3.3-.011,7.468-.029,10.515A5.877,5.877,0,0,0,67.7,86.241c1.526,1.536,4.112,2.348,7.477,2.348h3.286c5.855,0,9.087-2.378,9.1-6.694.016-4.865.034-12.379.038-14.915l1.326,1.328c2.592,2.6,4.759,4.766,5.029,5a4.119,4.119,0,0,0,2.511,1.125c.086.006.171.008.255.008a3.554,3.554,0,0,0,2.435-.952A3.505,3.505,0,0,0,100.014,69.464Z" transform="translate(-30.323 -35.542)" stroke="#000" stroke-width="1"/>
      <path id="Path_114" data-name="Path 114" d="M76.827,93.511q-.161,0-.327-.011a4.993,4.993,0,0,1-.5-.061v5.117c0,2.136.913,3.31,2.712,3.488l.055,0a.553.553,0,0,0,.054-1.1c-.848-.084-1.714-.434-1.714-2.387V93.5C77.017,93.5,76.923,93.511,76.827,93.511Z" transform="translate(-34.463 -53.426)" stroke="#000" stroke-width="1"/>
    </g>
  </g>
</svg>
