<svg xmlns="http://www.w3.org/2000/svg" width="70.083" height="68.513" viewBox="0 0 70.083 68.513">
  <g id="icon-holiday-campsite" transform="translate(-5.238 -6.25)">
    <g id="Group_88" data-name="Group 88" transform="translate(6 7)">
      <path id="Path_104" data-name="Path 104" d="M39.806,959.362a1.944,1.944,0,0,0-1.95,1.907v3.955H24.064c-1.294,0-2.644,1.007-4.1,2.552a34.423,34.423,0,0,0-4.4,6.086c-2.81,4.823-5.15,10.747-5.377,15.4,0,.009,0,.019,0,.028a101.256,101.256,0,0,0,1.031,15.987,12.056,12.056,0,0,0,1.059,3.7L6.957,1009v-4.6a.451.451,0,0,0-.14-.328.445.445,0,0,0-.751.328v5.048a.447.447,0,0,0,.446.449l6.269-.028a8.391,8.391,0,0,0,.7.982,6.678,6.678,0,0,0,5.21,2.44H20v9.76q-6.8.911-13.6,2.412a.448.448,0,1,0,.195.869,152.366,152.366,0,0,1,67.37,0,.444.444,0,0,0,.464-.106.451.451,0,0,0,.1-.467.446.446,0,0,0-.374-.3,153.545,153.545,0,0,0-31.217-3.794c-.713-.014-1.73-.022-2.747-.021a154.059,154.059,0,0,0-19.308,1.29V1013.3H48.5a8.631,8.631,0,0,0,17.246,0h.864a7.942,7.942,0,0,0,7.913-7.937V973.189a7.965,7.965,0,0,0-7.913-7.965H65.8v-3.955a1.91,1.91,0,0,0-1.895-1.907h-24.1Zm0,.9h24.1a1.025,1.025,0,0,1,1,1.01v3.955H38.747v-3.955a1.046,1.046,0,0,1,1.059-1.01Zm-15.742,5.862H66.609a7.063,7.063,0,0,1,7.021,7.068v18.455H41.087V978.6a3.612,3.612,0,0,0-3.594-3.618H28.466a3.636,3.636,0,0,0-3.622,3.618v13.042H11.052c0-.764.011-1.545.028-2.328.214-4.381,2.508-10.272,5.266-15a33.636,33.636,0,0,1,4.263-5.918c1.384-1.473,2.681-2.272,3.455-2.272Zm4.4,9.76h9.027a2.71,2.71,0,0,1,2.7,2.721v33.8H25.736V978.6a2.733,2.733,0,0,1,2.731-2.721ZM11.08,992.541H24.844V1012.4H18.687a5.691,5.691,0,0,1-4.514-2.131,9.832,9.832,0,0,1-2.09-5.1,106.093,106.093,0,0,1-1-12.621Zm30.007,0H73.63v12.817a7.037,7.037,0,0,1-7.021,7.04h-.864a8.619,8.619,0,0,0-17.218,0H41.087V992.541Zm16.048,12.537a7.8,7.8,0,1,1-7.773,7.769.617.617,0,0,1,.028-.2.452.452,0,0,0,0-.084,7.767,7.767,0,0,1,7.746-7.488Z" transform="translate(-6 -959.362)" stroke="#000" stroke-width="1.5" fill-rule="evenodd"/>
      <path id="Path_105" data-name="Path 105" d="M70.557,1023.123a3.836,3.836,0,1,0,3.794,3.819,3.824,3.824,0,0,0-3.794-3.819Zm0,.9a2.907,2.907,0,0,1,2.9,2.922,2.919,2.919,0,1,1-2.9-2.922Z" transform="translate(-19.417 -973.448)" stroke="#000" stroke-width="1.5" fill-rule="evenodd"/>
      <path id="Path_106" data-name="Path 106" d="M43.894,997.808a.447.447,0,0,0-.439.454v4.643a.446.446,0,1,0,.892,0v-4.643a.451.451,0,0,0-.131-.323A.444.444,0,0,0,43.894,997.808Z" transform="translate(-14.274 -967.855)" stroke="#000" stroke-width="1.5" fill-rule="evenodd"/>
      <path id="Path_107" data-name="Path 107" d="M60.77,979.414a3.022,3.022,0,0,0-3.009,3.029v5.974a3.022,3.022,0,0,0,3.009,3.029H76.846a3.022,3.022,0,0,0,3.009-3.029v-5.974a3.022,3.022,0,0,0-3.009-3.029H60.77Zm0,.9H72.75v10.237H60.77a2.106,2.106,0,0,1-2.117-2.132v-5.974a2.106,2.106,0,0,1,2.117-2.132Zm12.872,0h3.2a2.106,2.106,0,0,1,2.118,2.132v5.974a2.106,2.106,0,0,1-2.118,2.132h-3.2Z" transform="translate(-17.435 -963.792)" stroke="#000" stroke-width="1.5" fill-rule="evenodd"/>
    </g>
  </g>
</svg>
