
<svg xmlns="http://www.w3.org/2000/svg" viewBox="0 0 70 70"><defs><style>.cls-1{fill:#fff;}.cls-2,.cls-3,.cls-4,.cls-5{fill:none;stroke:#222323;stroke-miterlimit:10;}.cls-2{stroke-width:1.19px;}.cls-3{stroke-width:0.85px;}.cls-4{stroke-width:0.68px;}.cls-5{stroke-width:0.51px;}</style></defs><g id="Layer_2" data-name="Layer 2"><g id="Layer_1-2" data-name="Layer 1"><circle class="cls-1" cx="35" cy="35" r="35"/><path class="cls-2" d="M57.54,41.22a10.33,10.33,0,0,1-8.41-4.33,11.5,11.5,0,0,1-2,.18A11.06,11.06,0,0,1,36.12,26a11,11,0,0,1,1.61-5.72,9.61,9.61,0,0,1-1-8.72c-.44,0-.87-.07-1.31-.07A23.5,23.5,0,1,0,58.07,41.19C57.9,41.2,57.72,41.22,57.54,41.22Z"/><circle class="cls-2" cx="22" cy="28" r="3.5"/><circle class="cls-2" cx="35" cy="48" r="3.5"/><circle class="cls-3" cx="22" cy="42" r="2.5"/><circle class="cls-4" cx="46.5" cy="44.5" r="2"/><circle class="cls-5" cx="33" cy="36" r="1.5"/><circle class="cls-5" cx="31" cy="24" r="1.5"/></g></g></svg>