<svg xmlns="http://www.w3.org/2000/svg" width="22" height="22" viewBox="0 0 22 22">
  <g id="Group_850" data-name="Group 850" transform="translate(-57 -72)">
    <g id="Group_849" data-name="Group 849" transform="translate(57 72)">
      <rect id="Rectangle_139" data-name="Rectangle 139" width="22" height="22" transform="translate(0 0)" fill="#f0f0f0"/>
      <path id="Path_2327" data-name="Path 2327" d="M.5,13.562H9.438V22.5h4.125V13.562H22.5V9.437H13.563V.5H9.438V9.437H.5Z" transform="translate(-0.5 -0.5)" fill="#d80027"/>
      <g id="Group_845" data-name="Group 845" transform="translate(14.348 14.348)">
        <path id="Path_2328" data-name="Path 2328" d="M318.406,261.369l4.515,4.515v-4.515Z" transform="translate(-315.269 -261.369)" fill="#0052b4"/>
        <path id="Path_2329" data-name="Path 2329" d="M261.369,261.369l7.652,7.652v-2.164l-5.488-5.488Z" transform="translate(-261.369 -261.369)" fill="#0052b4"/>
        <path id="Path_2330" data-name="Path 2330" d="M266.983,304.033l-5.614-5.614v5.614Z" transform="translate(-261.369 -296.381)" fill="#0052b4"/>
      </g>
      <path id="Path_2331" data-name="Path 2331" d="M261.369,261.369l7.652,7.652v-2.164l-5.488-5.488Z" transform="translate(-247.021 -247.021)" fill="#f0f0f0"/>
      <path id="Path_2332" data-name="Path 2332" d="M261.369,261.369l7.652,7.652v-2.164l-5.488-5.488Z" transform="translate(-247.021 -247.021)" fill="#d80027"/>
      <g id="Group_846" data-name="Group 846" transform="translate(0 14.348)">
        <path id="Path_2333" data-name="Path 2333" d="M3.95,261.369.5,264.82v-3.45Z" transform="translate(-0.5 -261.369)" fill="#0052b4"/>
        <path id="Path_2334" data-name="Path 2334" d="M24.88,279.061v6.679H18.2Z" transform="translate(-17.228 -278.088)" fill="#0052b4"/>
      </g>
      <path id="Path_2335" data-name="Path 2335" d="M5.988,261.372.5,266.86v2.164h0l7.652-7.652Z" transform="translate(-0.5 -247.024)" fill="#d80027"/>
      <g id="Group_847" data-name="Group 847" transform="translate(0 0)">
        <path id="Path_2336" data-name="Path 2336" d="M5.015,62.052.5,57.537v4.515Z" transform="translate(-0.5 -54.4)" fill="#0052b4"/>
        <path id="Path_2337" data-name="Path 2337" d="M8.152,8.152.5.5V2.664L5.988,8.152Z" transform="translate(-0.5 -0.5)" fill="#0052b4"/>
        <path id="Path_2338" data-name="Path 2338" d="M37.56.5l5.614,5.614V.5Z" transform="translate(-35.521 -0.5)" fill="#0052b4"/>
      </g>
      <path id="Path_2339" data-name="Path 2339" d="M8.152,8.152.5.5V2.664L5.988,8.152Z" transform="translate(-0.5 -0.5)" fill="#f0f0f0"/>
      <path id="Path_2340" data-name="Path 2340" d="M8.152,8.152.5.5V2.664L5.988,8.152Z" transform="translate(-0.5 -0.5)" fill="#d80027"/>
      <g id="Group_848" data-name="Group 848" transform="translate(14.348 0)">
        <path id="Path_2341" data-name="Path 2341" d="M337.764,80.345l3.451-3.45v3.45Z" transform="translate(-333.562 -72.693)" fill="#0052b4"/>
        <path id="Path_2342" data-name="Path 2342" d="M261.372,7.181V.5h6.678Z" transform="translate(-261.372 -0.502)" fill="#0052b4"/>
      </g>
      <path id="Path_2343" data-name="Path 2343" d="M263.536,8.152l5.488-5.488V.5h0l-7.652,7.652Z" transform="translate(-247.024 -0.5)" fill="#d80027"/>
    </g>
  </g>
</svg>
