<?xml version="1.0" encoding="UTF-8" standalone="no"?>
<!-- Generator: Adobe Illustrator 16.0.0, SVG Export Plug-In . SVG Version: 6.00 Build 0)  -->

<svg
   xmlns:dc="http://purl.org/dc/elements/1.1/"
   xmlns:cc="http://creativecommons.org/ns#"
   xmlns:rdf="http://www.w3.org/1999/02/22-rdf-syntax-ns#"
   xmlns:svg="http://www.w3.org/2000/svg"
   xmlns="http://www.w3.org/2000/svg"
   xmlns:sodipodi="http://sodipodi.sourceforge.net/DTD/sodipodi-0.dtd"
   xmlns:inkscape="http://www.inkscape.org/namespaces/inkscape"
   version="1.1"
   x="0px"
   y="0px"
   width="70"
   height="17"
   viewBox="0 0 70.000002 16.999999"
   enable-background="new 0 0 595 842"
   xml:space="preserve"
   id="svg2"
   inkscape:version="0.92.2 (5c3e80d, 2017-08-06)"
   sodipodi:docname="globaldizajn-logo.svg"><metadata
     id="metadata41"><rdf:RDF><cc:Work
         rdf:about=""><dc:format>image/svg+xml</dc:format><dc:type
           rdf:resource="http://purl.org/dc/dcmitype/StillImage" /><dc:title></dc:title></cc:Work></rdf:RDF></metadata><defs
     id="defs39" /><sodipodi:namedview
     pagecolor="#ffffff"
     bordercolor="#666666"
     borderopacity="1"
     objecttolerance="10"
     gridtolerance="10"
     guidetolerance="10"
     inkscape:pageopacity="0"
     inkscape:pageshadow="2"
     inkscape:window-width="1920"
     inkscape:window-height="1017"
     id="namedview37"
     showgrid="false"
     fit-margin-top="0"
     fit-margin-left="0"
     fit-margin-right="0"
     fit-margin-bottom="0"
     inkscape:zoom="8.96912"
     inkscape:cx="28.6165"
     inkscape:cy="19.21994"
     inkscape:window-x="-8"
     inkscape:window-y="-8"
     inkscape:window-maximized="1"
     inkscape:current-layer="svg2" /><g
     id="Background"
     transform="translate(-108.667,-468.17148)" /><g
     id="Guides"
     transform="translate(-108.667,-468.17148)" /><g
     id="Foreground"
     transform="matrix(0.17468659,0,0,0.17468659,-18.759681,-68.028397)"><g
       id="g7"><g
         id="g9"><path
           d="m 173.298,479.399 c -6.82,-22.072 -20.147,-21.837 -23.212,-21.471 h -15.781 c 2.925,-4.471 4.96,-9.664 6.159,-13.28 9.996,-0.427 18.014,-8.628 18.014,-18.728 0,-3.228 -0.893,-6.221 -2.332,-8.879 l 3.826,-2.469 c 2.068,-1.334 2.662,-4.093 1.327,-6.163 -1.334,-2.068 -4.093,-2.664 -6.161,-1.329 l -4.999,3.23 c -2.993,-2.014 -6.591,-3.195 -10.465,-3.195 -10.373,0 -18.809,8.437 -18.809,18.805 0,7.486 4.427,13.909 10.774,16.935 -2.806,7.832 -7.203,15.15 -10.262,15.073 h -8.252 c -2.461,0 -4.458,1.994 -4.458,4.456 0,2.46 1.996,4.456 4.458,4.456 h 37.568 l 0.465,-0.072 c 0.346,-0.057 8.566,-1.104 13.622,15.263 0.729,2.349 3.224,3.667 5.575,2.941 2.35,-0.727 3.668,-3.223 2.943,-5.573 z m -43.523,-53.478 c 0,-5.453 4.44,-9.891 9.897,-9.891 5.455,0 9.891,4.438 9.891,9.891 0,5.459 -4.437,9.897 -9.891,9.897 -0.233,0 -1.412,-0.021 -2.731,-0.433 -4.124,-1.193 -7.166,-4.96 -7.166,-9.464 z"
           id="path11"
           inkscape:connector-curvature="0"
           style="fill:#acd154" /><g
           id="g13"><path
             d="m 168.673,434.19 v -39.833 c 0,-0.714 0.359,-1.071 1.075,-1.071 h 5.148 c 0.714,0 1.073,0.357 1.073,1.071 v 39.402 c 0,2.813 1.31,4.221 3.932,4.221 h 2.146 c 0.716,0 1.073,0.357 1.073,1.071 v 4.078 c 0,0.714 -0.357,1.073 -1.073,1.073 h -3.432 c -3.241,0 -5.744,-1.001 -7.509,-3.005 -1.622,-1.811 -2.433,-4.147 -2.433,-7.007 z"
             id="path15"
             inkscape:connector-curvature="0"
             style="clip-rule:evenodd;fill-rule:evenodd" /><path
             d="m 204.408,444.631 c -4.433,0 -8.056,-1.455 -10.869,-4.363 -2.813,-2.908 -4.219,-7.651 -4.219,-14.23 0,-6.532 1.406,-11.251 4.219,-14.159 2.813,-2.908 6.437,-4.363 10.869,-4.363 4.483,0 8.13,1.455 10.943,4.363 2.813,2.908 4.217,7.627 4.217,14.159 0,6.58 -1.405,11.323 -4.217,14.23 -2.813,2.908 -6.46,4.363 -10.943,4.363 z m 0,-30.607 c -3.146,0 -5.315,1.311 -6.508,3.934 -0.857,1.81 -1.286,4.504 -1.286,8.08 0,8.056 2.598,12.085 7.794,12.085 5.244,0 7.866,-4.029 7.866,-12.085 0,-3.624 -0.429,-6.34 -1.288,-8.151 -1.191,-2.575 -3.383,-3.863 -6.578,-3.863 z"
             id="path17"
             inkscape:connector-curvature="0"
             style="clip-rule:evenodd;fill-rule:evenodd" /><path
             d="m 246.228,444.631 c -3.505,0 -6.679,-1.478 -9.523,-4.435 v 2.933 c 0,0.714 -0.365,1.073 -1.094,1.073 h -5.105 c -0.729,0 -1.094,-0.359 -1.094,-1.073 v -48.772 c 0,-0.714 0.356,-1.071 1.074,-1.071 h 5.148 c 0.714,0 1.071,0.357 1.071,1.071 v 17.377 c 2.813,-2.813 5.985,-4.219 9.511,-4.219 5.054,0 8.605,1.932 10.656,5.792 1.478,2.861 2.217,7.104 2.217,12.729 0,5.674 -0.759,9.94 -2.273,12.801 -1.991,3.862 -5.52,5.794 -10.588,5.794 z m -9.523,-18.593 c 0,3.813 0.454,6.626 1.36,8.438 1.143,2.431 3.218,3.647 6.221,3.647 3.003,0 5.077,-1.216 6.221,-3.647 0.859,-1.812 1.288,-4.625 1.288,-8.438 0,-3.814 -0.429,-6.627 -1.288,-8.438 -1.145,-2.384 -3.218,-3.575 -6.221,-3.575 -3.003,0 -5.079,1.191 -6.221,3.575 -0.906,1.811 -1.36,4.624 -1.36,8.438 z"
             id="path19"
             inkscape:connector-curvature="0"
             style="clip-rule:evenodd;fill-rule:evenodd" /><path
             d="m 288.422,440.84 c -2.891,2.528 -6.088,3.791 -9.593,3.791 -3.791,0 -6.774,-0.882 -8.953,-2.646 -2.369,-1.907 -3.552,-4.72 -3.552,-8.438 0,-3.146 1.073,-5.674 3.219,-7.581 2.144,-1.907 5.243,-2.859 9.296,-2.859 h 9.583 v -2.574 c 0,-4.53 -2.646,-6.793 -7.938,-6.793 -3.146,0 -5.554,0.88 -7.222,2.646 -0.192,0.19 -0.431,0.285 -0.716,0.285 -0.763,0 -1.668,-0.5 -2.718,-1.501 -1.05,-1.001 -1.573,-1.86 -1.573,-2.574 0,-0.287 0.071,-0.5 0.215,-0.644 2.813,-2.957 6.912,-4.435 12.299,-4.435 9.965,0 14.947,4.149 14.947,12.444 v 23.169 c 0,0.714 -0.365,1.073 -1.094,1.073 h -5.108 c -0.729,0 -1.092,-0.359 -1.092,-1.073 z m -8.511,-12.657 c -4.339,0 -6.508,1.74 -6.508,5.22 0,3.433 2.217,5.148 6.651,5.148 2.908,0 5.028,-0.535 6.363,-1.608 1.336,-1.073 2.004,-3.017 2.004,-5.829 v -2.931 z"
             id="path21"
             inkscape:connector-curvature="0"
             style="clip-rule:evenodd;fill-rule:evenodd" /><path
             d="m 306.624,434.19 v -39.833 c 0,-0.714 0.357,-1.071 1.073,-1.071 h 5.148 c 0.716,0 1.073,0.357 1.073,1.071 v 39.402 c 0,2.813 1.311,4.221 3.934,4.221 h 2.146 c 0.714,0 1.073,0.357 1.073,1.071 v 4.078 c 0,0.714 -0.359,1.073 -1.073,1.073 h -3.434 c -3.242,0 -5.744,-1.001 -7.509,-3.005 -1.621,-1.811 -2.431,-4.147 -2.431,-7.007 z"
             id="path23"
             inkscape:connector-curvature="0"
             style="clip-rule:evenodd;fill-rule:evenodd" /><path
             d="m 349.724,440.196 c -2.844,2.957 -6.018,4.435 -9.523,4.435 -5.069,0 -8.598,-1.932 -10.588,-5.792 -1.515,-2.861 -2.273,-7.127 -2.273,-12.801 0,-5.626 0.762,-9.868 2.289,-12.729 2.002,-3.86 5.531,-5.792 10.584,-5.792 3.526,0 6.698,1.406 9.511,4.219 v -17.377 c 0,-0.714 0.357,-1.071 1.073,-1.071 h 5.148 c 0.716,0 1.073,0.357 1.073,1.071 v 48.772 c 0,0.714 -0.365,1.073 -1.094,1.073 h -5.106 c -0.729,0 -1.094,-0.359 -1.094,-1.073 z m -15.091,-14.158 c 0,3.813 0.454,6.626 1.36,8.438 1.145,2.431 3.218,3.647 6.221,3.647 3.003,0 5.077,-1.216 6.221,-3.647 0.859,-1.812 1.288,-4.625 1.288,-8.438 0,-3.814 -0.429,-6.627 -1.288,-8.438 -1.145,-2.384 -3.218,-3.575 -6.221,-3.575 -3.003,0 -5.077,1.191 -6.221,3.575 -0.906,1.811 -1.36,4.624 -1.36,8.438 z"
             id="path25"
             inkscape:connector-curvature="0"
             style="clip-rule:evenodd;fill-rule:evenodd" /><path
             d="m 367.469,396.146 c 0,-1.288 0.466,-2.396 1.395,-3.325 0.931,-0.929 2.039,-1.395 3.327,-1.395 1.286,0 2.394,0.465 3.325,1.395 0.929,0.929 1.395,2.037 1.395,3.325 0,1.288 -0.465,2.396 -1.395,3.325 -0.931,0.929 -2.039,1.395 -3.325,1.395 -1.288,0 -2.396,-0.466 -3.327,-1.395 -0.929,-0.929 -1.395,-2.037 -1.395,-3.325 z m 1.075,12.873 c 0,-0.716 0.357,-1.073 1.071,-1.073 h 5.148 c 0.716,0 1.075,0.357 1.075,1.073 v 34.11 c 0,0.714 -0.359,1.073 -1.075,1.073 h -5.148 c -0.714,0 -1.071,-0.359 -1.071,-1.073 z"
             id="path27"
             inkscape:connector-curvature="0"
             style="clip-rule:evenodd;fill-rule:evenodd" /><path
             d="m 384.831,438.767 c 0.047,-0.333 0.119,-0.549 0.213,-0.644 l 17.808,-23.67 h -15.948 c -0.716,0 -1.073,-0.357 -1.073,-1.073 v -4.361 c 0,-0.716 0.357,-1.073 1.073,-1.073 h 23.886 c 0.714,0 1.071,0.357 1.071,1.073 v 4.361 c -0.046,0.333 -0.118,0.549 -0.213,0.644 l -17.95,23.67 h 17.092 c 0.714,0 1.071,0.357 1.071,1.073 v 4.363 c 0,0.714 -0.357,1.073 -1.071,1.073 h -24.887 c -0.716,0 -1.073,-0.359 -1.073,-1.073 v -4.363 z"
             id="path29"
             inkscape:connector-curvature="0"
             style="clip-rule:evenodd;fill-rule:evenodd" /><path
             d="m 440.401,440.84 c -2.889,2.528 -6.085,3.791 -9.591,3.791 -3.791,0 -6.774,-0.882 -8.955,-2.646 -2.366,-1.907 -3.552,-4.72 -3.552,-8.438 0,-3.146 1.073,-5.674 3.218,-7.581 2.146,-1.907 5.244,-2.859 9.296,-2.859 h 9.583 v -2.574 c 0,-4.53 -2.646,-6.793 -7.938,-6.793 -3.146,0 -5.554,0.88 -7.222,2.646 -0.19,0.19 -0.429,0.285 -0.716,0.285 -0.762,0 -1.668,-0.5 -2.718,-1.501 -1.047,-1.001 -1.573,-1.86 -1.573,-2.574 0,-0.287 0.072,-0.5 0.215,-0.644 2.813,-2.957 6.914,-4.435 12.301,-4.435 9.963,0 14.945,4.149 14.945,12.444 v 23.169 c 0,0.714 -0.365,1.073 -1.094,1.073 h -5.105 c -0.729,0 -1.094,-0.359 -1.094,-1.073 z m -8.51,-12.657 c -4.337,0 -6.506,1.74 -6.506,5.22 0,3.433 2.215,5.148 6.65,5.148 2.908,0 5.03,-0.535 6.365,-1.608 1.335,-1.073 2.002,-3.017 2.002,-5.829 v -2.931 z"
             id="path31"
             inkscape:connector-curvature="0"
             style="clip-rule:evenodd;fill-rule:evenodd" /><path
             d="m 457.817,396.146 c 0,-1.288 0.466,-2.396 1.395,-3.325 0.929,-0.929 2.039,-1.395 3.325,-1.395 1.288,0 2.396,0.465 3.325,1.395 0.931,0.929 1.395,2.037 1.395,3.325 0,1.288 -0.463,2.396 -1.395,3.325 -0.929,0.929 -2.037,1.395 -3.325,1.395 -1.286,0 -2.396,-0.466 -3.325,-1.395 -0.929,-0.929 -1.395,-2.037 -1.395,-3.325 z m -5.005,62.859 c -0.716,0 -1.073,-0.359 -1.073,-1.075 v -4.076 c 0,-0.714 0.357,-1.073 1.073,-1.073 h 2.146 c 2.621,0 3.932,-1.406 3.932,-4.219 v -39.544 c 0,-0.716 0.357,-1.073 1.073,-1.073 h 5.148 c 0.716,0 1.073,0.357 1.073,1.073 v 39.973 c 0,2.91 -0.786,5.246 -2.359,7.009 -1.765,2.002 -4.291,3.005 -7.581,3.005 z"
             id="path33"
             inkscape:connector-curvature="0"
             style="clip-rule:evenodd;fill-rule:evenodd" /><path
             d="m 499.85,422.105 c 0,-2.718 -0.724,-4.769 -2.167,-6.151 -1.251,-1.286 -2.985,-1.93 -5.199,-1.93 -2.214,0 -3.994,0.644 -5.342,1.93 -1.492,1.432 -2.239,3.48 -2.239,6.151 v 21.024 c 0,0.714 -0.351,1.073 -1.051,1.073 h -5.047 c -0.703,0 -1.052,-0.359 -1.052,-1.073 v -34.11 c 0,-0.716 0.357,-1.073 1.073,-1.073 h 5.005 c 0.716,0 1.073,0.357 1.073,1.073 v 2.716 c 3.051,-2.813 6.27,-4.219 9.655,-4.219 4.052,0 7.199,1.239 9.439,3.719 2.097,2.433 3.146,5.697 3.146,9.798 v 22.097 c 0,0.714 -0.359,1.073 -1.073,1.073 h -5.15 c -0.714,0 -1.071,-0.359 -1.071,-1.073 z"
             id="path35"
             inkscape:connector-curvature="0"
             style="clip-rule:evenodd;fill-rule:evenodd" /></g></g></g></g></svg>