<svg xmlns="http://www.w3.org/2000/svg" width="60" height="59.998" viewBox="0 0 60 59.998">
  <g id="Group_765" data-name="Group 765" transform="translate(-0.5 -0.5)">
    <g id="Group_764" data-name="Group 764" transform="translate(0.5 0.5)">
      <path id="Path_936" data-name="Path 936" d="M30.5,60.5a30,30,0,1,1,30-29.993A30.03,30.03,0,0,1,30.5,60.5Zm0-58.172A28.174,28.174,0,1,0,58.674,30.506,28.21,28.21,0,0,0,30.5,2.326Z" transform="translate(-0.5 -0.5)" fill="#a7b0b5"/>
    </g>
    <path id="Path_937" data-name="Path 937" d="M204.063,107.6a.908.908,0,0,1-.7-.332l-8.719-10.536a.911.911,0,0,1-.21-.581V78.644a.913.913,0,1,1,1.826,0V95.823l8.509,10.282a.912.912,0,0,1-.7,1.494Z" transform="translate(-164.842 -65.647)" fill="#a7b0b5"/>
  </g>
</svg>
