<svg version="1" xmlns="http://www.w3.org/2000/svg" width="105.16" height="31.94"><path fill="#140F06" d="M3.19.27c.02-.09.11-.16.2-.16h.25c.11 0 .18.05.22.16l4.61 13.77h.05L13.16.27c.04-.11.11-.16.22-.16h.25c.09 0 .18.07.2.16l3.18 15.47c.05.22-.05.29-.25.29h-.54c-.13 0-.25-.11-.27-.25L13.42 2.64h-.05L8.85 16.07c-.04.13-.18.18-.31.18h-.09c-.11 0-.25-.02-.29-.18L3.64 2.64H3.6L1.06 15.79c-.02.14-.13.25-.27.25H.26c-.2 0-.29-.07-.25-.29L3.19.27zM22.74.63c0-.16.14-.29.29-.29h8.98c.16 0 .29.13.29.29v.38c0 .16-.13.29-.29.29h-8.19v6.19h7.1c.16 0 .29.13.29.29v.38c0 .16-.13.29-.29.29h-7.1v6.64h8.19c.16 0 .29.13.29.29v.36c0 .16-.13.29-.29.29h-8.98a.29.29 0 0 1-.29-.29V.63zM37.92.63c0-.16.13-.29.27-.29h4.75c4.34 0 7.88 3.52 7.88 7.83 0 4.37-3.54 7.87-7.88 7.87h-4.75c-.13 0-.27-.13-.27-.29V.63zm4.84 14.44c3.92 0 6.94-2.98 6.94-6.91 0-3.88-3.02-6.86-6.94-6.86h-3.79v13.77h3.79zM62.73.11c4.5 0 8.08 3.61 8.08 8.09 0 4.51-3.58 8.05-8.08 8.05-4.48 0-8.06-3.54-8.06-8.05 0-4.48 3.58-8.09 8.06-8.09m0 15.16c3.92 0 7.1-3.14 7.1-7.06 0-3.92-3.18-7.11-7.1-7.11s-7.08 3.18-7.08 7.11a7.05 7.05 0 0 0 7.08 7.06M75.78.63c0-.16.11-.29.29-.29h5.55c2.73 0 4.99 2.06 4.99 4.8 0 2.27-1.57 4.08-3.69 4.69l3.27 5.81c.11.18.07.4-.16.4h-.69c-.16 0-.25-.07-.31-.2l-3.25-5.87c-.29.02-.54.02-.83.02h-4.12v5.76c0 .16-.13.29-.36.29h-.4a.29.29 0 0 1-.29-.29V.63zm5.8 8.41c2.15 0 3.96-1.68 3.96-3.9 0-2.13-1.81-3.77-3.99-3.77h-4.7v7.67h4.73zM90.78 15.77L97.68.16c.04-.09.16-.16.27-.16h.07c.11 0 .22.02.29.16l6.83 15.61c.04.13.04.27-.2.27h-.58c-.16 0-.27-.11-.31-.2l-1.81-4.13h-8.55l-1.79 4.13c-.04.09-.16.2-.31.2h-.63c-.18-.01-.24-.1-.18-.27m11.07-4.94l-3.83-9.04h-.04l-3.89 9.04h7.76zM15.2 26.76c-.66.06-.72.1-.72.77v3.26c0 .68.06.72.72.77v.23h-2.16v-.23c.68-.05.76-.09.76-.77v-1.62h-2.75v1.62c0 .67.07.72.73.77v.23H9.66v-.23c.65-.05.71-.09.71-.77v-3.26c0-.68-.06-.71-.73-.77v-.22h2.09v.22c-.61.06-.68.1-.68.77v1.31h2.75v-1.31c0-.67-.07-.71-.69-.77v-.22h2.1l-.01.22zM22.11 29.09c0 1.74-1.22 2.81-2.69 2.81-1.46 0-2.62-1.14-2.62-2.69 0-1.45 1.02-2.8 2.71-2.8 1.37 0 2.6 1.07 2.6 2.68m-4.49-.1c0 1.52.83 2.62 1.97 2.62.89 0 1.7-.75 1.7-2.3 0-1.71-.89-2.61-1.94-2.61-.91 0-1.73.78-1.73 2.29M28 27.79c-.09-.39-.16-.59-.26-.72-.13-.19-.27-.25-.87-.25h-.57v3.97c0 .64.06.72.83.77v.23h-2.31v-.23c.73-.05.8-.13.8-.77v-3.97h-.5c-.67 0-.83.06-.94.25-.1.14-.16.36-.26.72h-.23c.04-.48.08-1.01.1-1.45h.16c.11.18.22.2.44.2h3.18c.22 0 .28-.05.41-.2h.17c0 .37.04.96.08 1.43l-.23.02zM33.88 30.5c-.05.27-.21 1.02-.28 1.27h-3.88v-.23c.73-.06.8-.12.8-.77v-3.21c0-.73-.07-.75-.69-.81v-.23h3.59c0 .2.04.75.07 1.16l-.23.04c-.07-.34-.15-.51-.26-.69-.11-.17-.33-.23-.91-.23h-.63c-.25 0-.26.02-.26.26v1.83h.76c.72 0 .77-.07.87-.61h.23v1.55h-.23c-.1-.58-.16-.63-.86-.63h-.76v1.52c0 .38.05.55.19.65.15.1.43.1.84.1.61 0 .84-.06 1.01-.27.14-.16.29-.44.4-.76l.23.06zM39.33 30.51c-.05.25-.22 1.02-.29 1.27h-3.65v-.23c.68-.05.74-.11.74-.79v-3.23c0-.69-.06-.73-.71-.78v-.22h2.1v.22c-.64.05-.71.09-.71.78v3.19c0 .43.04.6.19.68.16.09.44.11.77.11.44 0 .72-.04.9-.25.14-.16.29-.42.41-.79l.25.04zM43.54 27.76c-.14-.52-.35-1.07-1.06-1.07-.62 0-.89.45-.89.89 0 .59.39.86 1.02 1.19.63.32 1.39.7 1.39 1.61 0 .85-.72 1.52-1.79 1.52-.33 0-.59-.07-.79-.12-.2-.07-.32-.13-.4-.17-.07-.17-.17-.86-.22-1.25l.23-.05c.13.49.49 1.31 1.32 1.31.61 0 .97-.38.97-.97 0-.6-.44-.88-1.05-1.2-.51-.27-1.33-.68-1.33-1.59 0-.78.62-1.44 1.66-1.44.37 0 .71.09 1.02.19.03.29.07.61.14 1.11l-.22.04zM53.03 28.56c-.56.06-.67.21-.93.6-.23.31-.42.65-.7 1.08.34.34 1.07 1.15 1.31 1.62l-.06.08c-.44-.04-.89-.23-.98-.33-.1-.12-.44-.5-.7-.78-.58.78-1.11 1.07-1.68 1.07-1.02 0-1.6-.77-1.6-1.47 0-.74.53-1.07 1.21-1.56-.36-.35-.58-.69-.58-1.12 0-.72.61-1.28 1.32-1.28.65 0 1.19.47 1.19 1.11 0 .33-.17.57-.34.71-.15.12-.34.28-.65.49.27.22.84.73 1.35 1.25.19-.3.33-.56.48-.93.15-.37.08-.47-.49-.54v-.23h1.84v.23h.01zm-2.25 2.04c-.43-.47-.94-.96-1.68-1.56-.53.37-.73.76-.73 1.15 0 .77.59 1.14 1.11 1.14.55.01 1.04-.36 1.3-.73m-1.88-3.05c0 .42.25.7.73 1.07.39-.28.6-.6.6-1.03 0-.46-.27-.85-.67-.85-.38 0-.66.33-.66.81M60.66 31.84c-.1 0-.19 0-.28-.01-.6-.03-.94-.21-1.31-.73-.28-.39-.57-.89-.81-1.29-.14-.22-.27-.32-.69-.32h-.26v1.28c0 .69.07.74.72.78v.23h-2.12v-.23c.66-.05.73-.1.73-.78v-3.24c0-.68-.06-.71-.69-.77v-.22h2c.59 0 .98.07 1.29.27.32.21.53.57.53 1.06 0 .69-.43 1.12-1.02 1.38.14.27.48.81.72 1.17.29.42.46.63.65.84.22.24.4.33.58.38l-.04.2zm-2.96-2.62c.41 0 .68-.07.88-.23.31-.24.44-.56.44-1 0-.87-.57-1.19-1.19-1.19-.23 0-.37.03-.43.08-.06.04-.09.14-.09.36v1.99h.39v-.01zM66.06 30.5c-.05.27-.21 1.02-.28 1.27H61.9v-.23c.73-.06.8-.12.8-.77v-3.21c0-.73-.07-.75-.69-.81v-.23h3.59c0 .2.04.75.06 1.16l-.23.04c-.07-.34-.15-.51-.26-.69-.11-.17-.33-.23-.91-.23h-.61c-.25 0-.27.02-.27.26v1.83h.76c.72 0 .77-.07.87-.61h.23v1.55h-.23c-.1-.58-.16-.63-.86-.63h-.77v1.52c0 .38.05.55.19.65.15.1.43.1.84.1.61 0 .84-.06 1.01-.27.14-.16.29-.44.4-.76l.24.06zM70.35 27.76c-.15-.52-.35-1.07-1.06-1.07-.62 0-.9.45-.9.89 0 .59.39.86 1.02 1.19.63.32 1.39.7 1.39 1.61 0 .85-.72 1.52-1.79 1.52-.33 0-.59-.07-.79-.12-.2-.07-.32-.13-.39-.17-.06-.17-.17-.86-.22-1.25l.23-.05c.13.49.49 1.31 1.32 1.31.6 0 .97-.38.97-.97 0-.6-.44-.88-1.05-1.2-.51-.27-1.33-.68-1.33-1.59 0-.78.62-1.44 1.66-1.44.37 0 .71.09 1.01.19.03.29.07.61.14 1.11l-.21.04zM77.81 29.09c0 1.74-1.22 2.81-2.69 2.81-1.46 0-2.62-1.14-2.62-2.69 0-1.45 1.02-2.8 2.71-2.8 1.37 0 2.6 1.07 2.6 2.68m-4.49-.1c0 1.52.83 2.62 1.97 2.62.89 0 1.7-.75 1.7-2.3 0-1.71-.89-2.61-1.94-2.61-.9 0-1.73.78-1.73 2.29M84.19 31.84c-.1 0-.18 0-.28-.01-.6-.03-.94-.21-1.31-.73-.28-.39-.57-.89-.81-1.29-.14-.22-.28-.32-.69-.32h-.26v1.28c0 .69.07.74.72.78v.23h-2.12v-.23c.66-.05.73-.1.73-.78v-3.24c0-.68-.06-.71-.69-.77v-.22h2c.59 0 .98.07 1.29.27.32.21.53.57.53 1.06 0 .69-.43 1.12-1.02 1.38.14.27.47.81.72 1.17.29.42.46.63.65.84.22.24.4.33.58.38l-.04.2zm-2.96-2.62c.41 0 .68-.07.88-.23.31-.24.44-.56.44-1 0-.87-.57-1.19-1.19-1.19-.23 0-.37.03-.43.08-.06.04-.09.14-.09.36v1.99h.39v-.01zM89.47 27.79c-.09-.39-.16-.59-.26-.72-.13-.19-.27-.25-.87-.25h-.57v3.97c0 .64.06.72.83.77v.23h-2.31v-.23c.73-.05.8-.13.8-.77v-3.97h-.5c-.67 0-.83.06-.93.25-.1.14-.16.36-.26.72h-.24c.04-.48.08-1.01.1-1.45h.16c.11.18.22.2.44.2h3.18c.22 0 .28-.05.41-.2h.17c0 .37.04.96.08 1.43l-.23.02zM94.08 27.76c-.14-.52-.35-1.07-1.05-1.07-.62 0-.9.45-.9.89 0 .59.39.86 1.02 1.19.63.32 1.4.7 1.4 1.61 0 .85-.72 1.52-1.79 1.52-.33 0-.59-.07-.79-.12-.2-.07-.32-.13-.39-.17-.06-.17-.17-.86-.22-1.25l.23-.05c.13.49.49 1.31 1.32 1.31.6 0 .97-.38.97-.97 0-.6-.44-.88-1.05-1.2-.51-.27-1.33-.68-1.33-1.59 0-.78.62-1.44 1.66-1.44.37 0 .71.09 1.02.19.03.29.07.61.14 1.11l-.24.04z"/></svg>