<?xml version="1.0" encoding="UTF-8"?><svg id="Layer_2" xmlns="http://www.w3.org/2000/svg" width="1988" height="1050" viewBox="0 0 1988 1050"><defs><style>.cls-1{fill:#fff;}.cls-2{fill:#0b4ea2;}.cls-3{fill:#ee1c25;}</style></defs><g id="Flag"><g><rect class="cls-1" width="1988" height="354.2"/><rect class="cls-3" y="700.3" width="1988" height="349.7"/><rect class="cls-2" y="354.2" width="1988" height="346.1"/><path class="cls-3" d="m757,256.5h-414.5s-27.4,265.1,5.2,338.3c32.6,73.3,85.3,151.9,202.6,202.5h0c117.3-50.6,168.9-129.2,201.5-202.5,32.6-73.3,5.2-338.3,5.2-338.3Z"/><path class="cls-1" d="m519.6,285.3h58.4s-10.9,42.2-10.9,79.9v217.3h-35v-217.9s-6.2-65.5-12.6-79.3Z"/><path class="cls-1" d="m444.9,350.5v66.9s20.7-13.8,52-13.8h47.8v-37.7h-47.8s-40.8-5.9-52-15.5Z"/><path class="cls-1" d="m653.8,350.5v66.9s-20.7-13.8-52-13.8h-47.8v-37.7h47.8s40.8-5.9,52-15.5Z"/><path class="cls-1" d="m422.4,445.4v66.9s20.7-13.8,52-13.8h58.3v-37.7h-58.3s-40.8-5.9-52-15.5Z"/><path class="cls-1" d="m675.5,445.4v66.9s-20.7-13.8-52-13.8h-57.8v-37.7h57.8s40.8-5.9,52-15.5Z"/><path class="cls-2" d="m550.3,797.3h0c86.8-37.4,137.5-90.2,171.3-144.8-16.5-27.9-37.1-44.5-59.3-44.5s-32,9.1-45.6,25.1c-17.6-36.1-40.9-58-66.5-58s-48.6,21.6-66.1,57.1c-13.5-15.5-28.7-24.2-44.9-24.2s-43.5,17.2-60.2,46.1c34.1,54,85.3,106.1,171.3,143.2Z"/><path class="cls-1" d="m552.3,807.3h-4l-1.8-.8c-55.3-23.9-100-55-136.4-95.2-28.4-31.3-51.1-67-71.3-112.4-33.3-74.9-7.2-332.6-6-343.5l.9-8.9h432.1l.9,8.9c1.1,10.9,27.3,268.6-6,343.5-30.4,68.2-81.3,153.5-206.5,207.6l-1.8.8Zm-201-540.8c-4.4,46.6-22.6,261.6,5.3,324.2,28.5,64,76.2,143.8,193.7,195.8,116.3-51.4,164-131.5,192.6-195.8,27.8-62.6,9.6-277.6,5.3-324.2h-396.8Z"/></g></g></svg>